<?xml version="1.0" encoding="UTF-8" standalone="no"?>
<!DOCTYPE svg PUBLIC "-//W3C//DTD SVG 1.1//EN"
 "http://www.w3.org/Graphics/SVG/1.1/DTD/svg11.dtd">
<!-- Generated by graphviz version 2.26.3 (20100126.1600)
 -->
<!-- Title: G Pages: 1 -->
<svg width="686pt" height="1970pt"
 viewBox="0.00 0.00 686.00 1970.00" xmlns="http://www.w3.org/2000/svg" xmlns:xlink="http://www.w3.org/1999/xlink">
<g id="graph1" class="graph" transform="scale(1 1) rotate(0) translate(4 1966)">
<title>G</title>
<polygon fill="white" stroke="white" points="-4,5 -4,-1966 683,-1966 683,5 -4,5"/>
<g id="graph2" class="cluster"><title>cluster_global</title>
<polyline fill="none" stroke="gray" points="297,-368 658,-368 "/>
<path fill="none" stroke="gray" d="M658,-368C664,-368 670,-374 670,-380"/>
<polyline fill="none" stroke="gray" points="670,-380 670,-1942 "/>
<path fill="none" stroke="gray" d="M670,-1942C670,-1948 664,-1954 658,-1954"/>
<polyline fill="none" stroke="gray" points="658,-1954 297,-1954 "/>
<path fill="none" stroke="gray" d="M297,-1954C291,-1954 285,-1948 285,-1942"/>
<polyline fill="none" stroke="gray" points="285,-1942 285,-380 "/>
<path fill="none" stroke="gray" d="M285,-380C285,-374 291,-368 297,-368"/>
<text text-anchor="middle" x="477.5" y="-1940.1" font-family="Times Roman,serif" font-size="11.00" fill="gray">global</text>
</g>
<!-- \\ContactForm -->
<g id="node2" class="node"><title>\\ContactForm</title>
<a xlink:href="protected.models.ContactForm.html" xlink:title="ContactForm" target="_parent">
<polygon fill="none" stroke="black" points="628,-1384 538,-1384 538,-1348 628,-1348 628,-1384"/>
<text text-anchor="middle" x="583" y="-1363.1" font-family="Courier,monospace" font-size="11.00">ContactForm</text>
</a>
</g>
<!-- \\CFormModel -->
<g id="node34" class="node"><title>\\CFormModel</title>
<ellipse fill="none" stroke="black" cx="339" cy="-342" rx="74.9533" ry="18.3848"/>
<text text-anchor="middle" x="339" y="-338.4" font-family="Times Roman,serif" font-size="14.00" fill="gray">\CFormModel</text>
</g>
<!-- \\ContactForm&#45;&gt;\\CFormModel -->
<g id="edge3" class="edge"><title>\\ContactForm&#45;&gt;\\CFormModel</title>
<path fill="none" stroke="black" d="M537.31,-1359.95C524.645,-1356.01 512.15,-1349.55 504,-1339 371.21,-1167.05 572.973,-529.309 432,-364 428.232,-359.581 423.756,-355.96 418.836,-353"/>
<polygon fill="none" stroke="black" points="420.066,-349.702 409.557,-348.358 416.934,-355.962 420.066,-349.702"/>
</g>
<!-- \\Role -->
<g id="node3" class="node"><title>\\Role</title>
<a xlink:href="protected.models.Role.html" xlink:title="Role" target="_parent">
<polygon fill="none" stroke="black" points="610,-1114 556,-1114 556,-1078 610,-1078 610,-1114"/>
<text text-anchor="middle" x="583" y="-1093.1" font-family="Courier,monospace" font-size="11.00">Role</text>
</a>
</g>
<!-- \\CActiveRecord -->
<g id="node36" class="node"><title>\\CActiveRecord</title>
<ellipse fill="none" stroke="black" cx="339" cy="-288" rx="84.8528" ry="18.3848"/>
<text text-anchor="middle" x="339" y="-284.4" font-family="Times Roman,serif" font-size="14.00" fill="gray">\CActiveRecord</text>
</g>
<!-- \\Role&#45;&gt;\\CActiveRecord -->
<g id="edge5" class="edge"><title>\\Role&#45;&gt;\\CActiveRecord</title>
<path fill="none" stroke="black" d="M555.636,-1094.02C538.065,-1091.22 516.305,-1084.58 504,-1069 399.697,-936.895 539.364,-444.63 432,-315 428.084,-310.272 423.393,-306.343 418.228,-303.082"/>
<polygon fill="none" stroke="black" points="419.606,-299.85 409.14,-298.201 416.294,-306.017 419.606,-299.85"/>
</g>
<!-- \\NewPw -->
<g id="node4" class="node"><title>\\NewPw</title>
<a xlink:href="protected.models.NewPw.html" xlink:title="NewPw" target="_parent">
<polygon fill="none" stroke="black" points="610,-1330 556,-1330 556,-1294 610,-1294 610,-1330"/>
<text text-anchor="middle" x="583" y="-1309.1" font-family="Courier,monospace" font-size="11.00">NewPw</text>
</a>
</g>
<!-- \\NewPw&#45;&gt;\\CFormModel -->
<g id="edge7" class="edge"><title>\\NewPw&#45;&gt;\\CFormModel</title>
<path fill="none" stroke="black" d="M555.934,-1310.15C538.258,-1307.42 516.26,-1300.8 504,-1285 378.174,-1122.79 565.545,-519.917 432,-364 428.222,-359.59 423.739,-355.974 418.815,-353.018"/>
<polygon fill="none" stroke="black" points="420.04,-349.718 409.529,-348.381 416.912,-355.98 420.04,-349.718"/>
</g>
<!-- \\UserRole -->
<g id="node5" class="node"><title>\\UserRole</title>
<a xlink:href="protected.models.UserRole.html" xlink:title="UserRole" target="_parent">
<polygon fill="none" stroke="black" points="618,-1060 548,-1060 548,-1024 618,-1024 618,-1060"/>
<text text-anchor="middle" x="583" y="-1039.1" font-family="Courier,monospace" font-size="11.00">UserRole</text>
</a>
</g>
<!-- \\UserRole&#45;&gt;\\CActiveRecord -->
<g id="edge9" class="edge"><title>\\UserRole&#45;&gt;\\CActiveRecord</title>
<path fill="none" stroke="black" d="M547.353,-1038.41C531.669,-1034.94 514.467,-1028.16 504,-1015 309.299,-770.244 632.371,-555.137 432,-315 428.067,-310.286 423.364,-306.368 418.19,-303.114"/>
<polygon fill="none" stroke="black" points="419.56,-299.877 409.092,-298.242 416.255,-306.048 419.56,-299.877"/>
</g>
<!-- \\Tan -->
<g id="node6" class="node"><title>\\Tan</title>
<a xlink:href="protected.models.Tan.html" xlink:title="Tan" target="_parent">
<polygon fill="none" stroke="black" points="610,-1006 556,-1006 556,-970 610,-970 610,-1006"/>
<text text-anchor="middle" x="583" y="-985.1" font-family="Courier,monospace" font-size="11.00">Tan</text>
</a>
</g>
<!-- \\Tan&#45;&gt;\\CActiveRecord -->
<g id="edge11" class="edge"><title>\\Tan&#45;&gt;\\CActiveRecord</title>
<path fill="none" stroke="black" d="M555.715,-985.961C538.179,-983.131 516.428,-976.487 504,-961 323.196,-735.685 618.023,-536.025 432,-315 428.047,-310.303 423.329,-306.397 418.146,-303.151"/>
<polygon fill="none" stroke="black" points="419.505,-299.909 409.035,-298.289 416.21,-306.085 419.505,-299.909"/>
</g>
<!-- \\Child -->
<g id="node7" class="node"><title>\\Child</title>
<a xlink:href="protected.models.Child.html" xlink:title="Child" target="_parent">
<polygon fill="none" stroke="black" points="610,-952 556,-952 556,-916 610,-916 610,-952"/>
<text text-anchor="middle" x="583" y="-931.1" font-family="Courier,monospace" font-size="11.00">Child</text>
</a>
</g>
<!-- \\Child&#45;&gt;\\CActiveRecord -->
<g id="edge13" class="edge"><title>\\Child&#45;&gt;\\CActiveRecord</title>
<path fill="none" stroke="black" d="M555.766,-931.92C538.251,-929.073 516.505,-922.425 504,-907 337.081,-701.113 603.687,-516.928 432,-315 428.023,-310.323 423.289,-306.431 418.094,-303.195"/>
<polygon fill="none" stroke="black" points="419.442,-299.947 408.969,-298.345 416.157,-306.129 419.442,-299.947"/>
</g>
<!-- \\LoginForm -->
<g id="node8" class="node"><title>\\LoginForm</title>
<a xlink:href="protected.models.LoginForm.html" xlink:title="LoginForm" target="_parent">
<polygon fill="none" stroke="black" points="621,-1276 545,-1276 545,-1240 621,-1240 621,-1276"/>
<text text-anchor="middle" x="583" y="-1255.1" font-family="Courier,monospace" font-size="11.00">LoginForm</text>
</a>
</g>
<!-- \\LoginForm&#45;&gt;\\CFormModel -->
<g id="edge15" class="edge"><title>\\LoginForm&#45;&gt;\\CFormModel</title>
<path fill="none" stroke="black" d="M544.378,-1253.84C529.477,-1250.2 513.713,-1243.46 504,-1231 385.136,-1078.53 558.119,-510.528 432,-364 428.212,-359.599 423.721,-355.99 418.791,-353.039"/>
<polygon fill="none" stroke="black" points="420.009,-349.736 409.498,-348.408 416.887,-356.001 420.009,-349.736"/>
</g>
<!-- \\Appointment -->
<g id="node9" class="node"><title>\\Appointment</title>
<a xlink:href="protected.models.Appointment.html" xlink:title="Appointment" target="_parent">
<polygon fill="none" stroke="black" points="628,-898 538,-898 538,-862 628,-862 628,-898"/>
<text text-anchor="middle" x="583" y="-877.1" font-family="Courier,monospace" font-size="11.00">Appointment</text>
</a>
</g>
<!-- \\Appointment&#45;&gt;\\CActiveRecord -->
<g id="edge17" class="edge"><title>\\Appointment&#45;&gt;\\CActiveRecord</title>
<path fill="none" stroke="black" d="M537.279,-873.516C524.769,-869.554 512.368,-863.196 504,-853 350.951,-666.521 589.367,-497.849 432,-315 427.995,-310.347 423.241,-306.472 418.032,-303.248"/>
<polygon fill="none" stroke="black" points="419.366,-299.994 408.889,-298.413 416.094,-306.182 419.366,-299.994"/>
</g>
<!-- \\CsvUpload -->
<g id="node10" class="node"><title>\\CsvUpload</title>
<a xlink:href="protected.models.CsvUpload.html" xlink:title="CsvUpload" target="_parent">
<polygon fill="none" stroke="black" points="621,-1222 545,-1222 545,-1186 621,-1186 621,-1222"/>
<text text-anchor="middle" x="583" y="-1201.1" font-family="Courier,monospace" font-size="11.00">CsvUpload</text>
</a>
</g>
<!-- \\CsvUpload&#45;&gt;\\CFormModel -->
<g id="edge19" class="edge"><title>\\CsvUpload&#45;&gt;\\CFormModel</title>
<path fill="none" stroke="black" d="M544.412,-1199.81C529.516,-1196.17 513.747,-1189.43 504,-1177 392.096,-1034.26 550.695,-501.142 432,-364 428.2,-359.609 423.7,-356.008 418.764,-353.062"/>
<polygon fill="none" stroke="black" points="419.976,-349.756 409.463,-348.439 416.86,-356.024 419.976,-349.756"/>
</g>
<!-- \\DateAndTime -->
<g id="node11" class="node"><title>\\DateAndTime</title>
<a xlink:href="protected.models.DateAndTime.html" xlink:title="DateAndTime" target="_parent">
<polygon fill="none" stroke="black" points="628,-844 538,-844 538,-808 628,-808 628,-844"/>
<text text-anchor="middle" x="583" y="-823.1" font-family="Courier,monospace" font-size="11.00">DateAndTime</text>
</a>
</g>
<!-- \\DateAndTime&#45;&gt;\\CActiveRecord -->
<g id="edge21" class="edge"><title>\\DateAndTime&#45;&gt;\\CActiveRecord</title>
<path fill="none" stroke="black" d="M537.371,-819.439C524.865,-815.475 512.442,-809.134 504,-799 364.801,-631.906 575.068,-478.794 432,-315 427.961,-310.376 423.183,-306.522 417.957,-303.312"/>
<polygon fill="none" stroke="black" points="419.273,-300.05 408.793,-298.497 416.017,-306.247 419.273,-300.05"/>
</g>
<!-- \\ParentChild -->
<g id="node12" class="node"><title>\\ParentChild</title>
<a xlink:href="protected.models.ParentChild.html" xlink:title="ParentChild" target="_parent">
<polygon fill="none" stroke="black" points="628,-790 538,-790 538,-754 628,-754 628,-790"/>
<text text-anchor="middle" x="583" y="-769.1" font-family="Courier,monospace" font-size="11.00">ParentChild</text>
</a>
</g>
<!-- \\ParentChild&#45;&gt;\\CActiveRecord -->
<g id="edge23" class="edge"><title>\\ParentChild&#45;&gt;\\CActiveRecord</title>
<path fill="none" stroke="black" d="M537.486,-765.343C524.983,-761.375 512.534,-755.057 504,-745 378.623,-597.256 560.797,-459.771 432,-315 427.919,-310.413 423.111,-306.586 417.865,-303.394"/>
<polygon fill="none" stroke="black" points="419.16,-300.122 408.674,-298.601 415.923,-306.329 419.16,-300.122"/>
</g>
<!-- \\ChangePwd -->
<g id="node13" class="node"><title>\\ChangePwd</title>
<a xlink:href="protected.models.ChangePwd.html" xlink:title="ChangePwd" target="_parent">
<polygon fill="none" stroke="black" points="621,-1168 545,-1168 545,-1132 621,-1132 621,-1168"/>
<text text-anchor="middle" x="583" y="-1147.1" font-family="Courier,monospace" font-size="11.00">ChangePwd</text>
</a>
</g>
<!-- \\ChangePwd&#45;&gt;\\CFormModel -->
<g id="edge25" class="edge"><title>\\ChangePwd&#45;&gt;\\CFormModel</title>
<path fill="none" stroke="black" d="M544.45,-1145.78C529.561,-1142.14 513.786,-1135.4 504,-1123 399.053,-989.994 543.274,-491.759 432,-364 428.186,-359.621 423.677,-356.028 418.733,-353.088"/>
<polygon fill="none" stroke="black" points="419.937,-349.779 409.423,-348.473 416.828,-356.051 419.937,-349.779"/>
</g>
<!-- \\Date -->
<g id="node14" class="node"><title>\\Date</title>
<a xlink:href="protected.models.Date.html" xlink:title="Date" target="_parent">
<polygon fill="none" stroke="black" points="610,-736 556,-736 556,-700 610,-700 610,-736"/>
<text text-anchor="middle" x="583" y="-715.1" font-family="Courier,monospace" font-size="11.00">Date</text>
</a>
</g>
<!-- \\Date&#45;&gt;\\CActiveRecord -->
<g id="edge27" class="edge"><title>\\Date&#45;&gt;\\CActiveRecord</title>
<path fill="none" stroke="black" d="M555.721,-715.573C538.416,-712.57 516.929,-705.88 504,-691 392.405,-562.56 546.567,-440.795 432,-315 427.691,-310.269 422.608,-306.348 417.075,-303.1"/>
<polygon fill="none" stroke="black" points="418.561,-299.929 408.059,-298.532 415.397,-306.174 418.561,-299.929"/>
</g>
<!-- \\User -->
<g id="node15" class="node"><title>\\User</title>
<a xlink:href="protected.models.User.html" xlink:title="User" target="_parent">
<polygon fill="none" stroke="black" points="610,-682 556,-682 556,-646 610,-646 610,-682"/>
<text text-anchor="middle" x="583" y="-661.1" font-family="Courier,monospace" font-size="11.00">User</text>
</a>
</g>
<!-- \\User&#45;&gt;\\CActiveRecord -->
<g id="edge29" class="edge"><title>\\User&#45;&gt;\\CActiveRecord</title>
<path fill="none" stroke="black" d="M555.871,-661.44C538.63,-658.382 517.156,-651.679 504,-637 406.127,-527.795 532.399,-421.887 432,-315 427.619,-310.336 422.485,-306.462 416.918,-303.246"/>
<polygon fill="none" stroke="black" points="418.37,-300.059 407.861,-298.715 415.238,-306.319 418.37,-300.059"/>
</g>
<!-- \\YiiDebugToolbarTest -->
<g id="node16" class="node"><title>\\YiiDebugToolbarTest</title>
<a xlink:href="protected.tests.unit.YiiDebugToolbarTest.html" xlink:title="YiiDebugToolbarTest" target="_parent">
<polygon fill="none" stroke="black" points="655,-628 511,-628 511,-592 655,-592 655,-628"/>
<text text-anchor="middle" x="583" y="-607.1" font-family="Courier,monospace" font-size="11.00">YiiDebugToolbarTest</text>
</a>
</g>
<!-- \\CTestCase -->
<g id="node50" class="node"><title>\\CTestCase</title>
<ellipse fill="none" stroke="black" cx="339" cy="-234" rx="65.0538" ry="18.3848"/>
<text text-anchor="middle" x="339" y="-230.4" font-family="Times Roman,serif" font-size="14.00" fill="gray">\CTestCase</text>
</g>
<!-- \\YiiDebugToolbarTest&#45;&gt;\\CTestCase -->
<g id="edge31" class="edge"><title>\\YiiDebugToolbarTest&#45;&gt;\\CTestCase</title>
<path fill="none" stroke="black" d="M514.144,-591.846C510.43,-589.278 506.999,-586.346 504,-583 406.127,-473.795 532.399,-367.887 432,-261 425.422,-253.997 417.146,-248.775 408.258,-244.888"/>
<polygon fill="none" stroke="black" points="409.412,-241.582 398.821,-241.302 406.925,-248.126 409.412,-241.582"/>
</g>
<!-- \\WebTestCase -->
<g id="node17" class="node"><title>\\WebTestCase</title>
<a xlink:href="protected.tests.WebTestCase.html" xlink:title="WebTestCase" target="_parent">
<polygon fill="none" stroke="black" points="384,-1924 294,-1924 294,-1888 384,-1888 384,-1924"/>
<text text-anchor="middle" x="339" y="-1903.1" font-family="Courier,monospace" font-size="11.00">WebTestCase</text>
</a>
</g>
<!-- \\CWebTestCase -->
<g id="node52" class="node"><title>\\CWebTestCase</title>
<ellipse fill="none" stroke="black" cx="87" cy="-1906" rx="85.7684" ry="18.3848"/>
<text text-anchor="middle" x="87" y="-1902.4" font-family="Times Roman,serif" font-size="14.00" fill="gray">\CWebTestCase</text>
</g>
<!-- \\WebTestCase&#45;&gt;\\CWebTestCase -->
<g id="edge33" class="edge"><title>\\WebTestCase&#45;&gt;\\CWebTestCase</title>
<path fill="none" stroke="black" d="M293.365,-1906C262.768,-1906 221.32,-1906 183.596,-1906"/>
<polygon fill="none" stroke="black" points="183.582,-1902.5 173.582,-1906 183.582,-1909.5 183.582,-1902.5"/>
</g>
<!-- \\SiteTest -->
<g id="node18" class="node"><title>\\SiteTest</title>
<a xlink:href="protected.tests.functional.SiteTest.html" xlink:title="SiteTest" target="_parent">
<polygon fill="none" stroke="black" points="618,-1924 548,-1924 548,-1888 618,-1888 618,-1924"/>
<text text-anchor="middle" x="583" y="-1903.1" font-family="Courier,monospace" font-size="11.00">SiteTest</text>
</a>
</g>
<!-- \\SiteTest&#45;&gt;\\WebTestCase -->
<g id="edge35" class="edge"><title>\\SiteTest&#45;&gt;\\WebTestCase</title>
<path fill="none" stroke="black" d="M547.259,-1906C507.264,-1906 441.946,-1906 395.121,-1906"/>
<polygon fill="none" stroke="black" points="394.834,-1902.5 384.834,-1906 394.834,-1909.5 394.834,-1902.5"/>
</g>
<!-- \\CustomButtonColumn -->
<g id="node19" class="node"><title>\\CustomButtonColumn</title>
<a xlink:href="protected.components.CustomButtonColumn.html" xlink:title="CustomButtonColumn" target="_parent">
<polygon fill="none" stroke="black" points="652,-574 514,-574 514,-538 652,-538 652,-574"/>
<text text-anchor="middle" x="583" y="-553.1" font-family="Courier,monospace" font-size="11.00">CustomButtonColumn</text>
</a>
</g>
<!-- \\CButtonColumn -->
<g id="node55" class="node"><title>\\CButtonColumn</title>
<ellipse fill="none" stroke="black" cx="339" cy="-180" rx="92.1303" ry="18.3848"/>
<text text-anchor="middle" x="339" y="-176.4" font-family="Times Roman,serif" font-size="14.00" fill="gray">\CButtonColumn</text>
</g>
<!-- \\CustomButtonColumn&#45;&gt;\\CButtonColumn -->
<g id="edge37" class="edge"><title>\\CustomButtonColumn&#45;&gt;\\CButtonColumn</title>
<path fill="none" stroke="black" d="M514.144,-537.846C510.43,-535.278 506.999,-532.346 504,-529 406.127,-419.795 532.399,-313.887 432,-207 428.187,-202.941 423.804,-199.48 419.062,-196.531"/>
<polygon fill="none" stroke="black" points="420.649,-193.41 410.184,-191.756 417.333,-199.575 420.649,-193.41"/>
</g>
<!-- \\DataColumn -->
<g id="node20" class="node"><title>\\DataColumn</title>
<a xlink:href="protected.components.DataColumn.html" xlink:title="DataColumn" target="_parent">
<polygon fill="none" stroke="black" points="625,-520 541,-520 541,-484 625,-484 625,-520"/>
<text text-anchor="middle" x="583" y="-499.1" font-family="Courier,monospace" font-size="11.00">DataColumn</text>
</a>
</g>
<!-- \\CDataColumn -->
<g id="node57" class="node"><title>\\CDataColumn</title>
<ellipse fill="none" stroke="black" cx="339" cy="-126" rx="82.2301" ry="18.3848"/>
<text text-anchor="middle" x="339" y="-122.4" font-family="Times Roman,serif" font-size="14.00" fill="gray">\CDataColumn</text>
</g>
<!-- \\DataColumn&#45;&gt;\\CDataColumn -->
<g id="edge39" class="edge"><title>\\DataColumn&#45;&gt;\\CDataColumn</title>
<path fill="none" stroke="black" d="M540.701,-495.929C527.279,-492.014 513.48,-485.578 504,-475 406.127,-365.795 532.399,-259.887 432,-153 427.36,-148.06 421.875,-144.006 415.926,-140.682"/>
<polygon fill="none" stroke="black" points="417.449,-137.531 406.924,-136.316 414.394,-143.829 417.449,-137.531"/>
</g>
<!-- \\UserIdentity -->
<g id="node21" class="node"><title>\\UserIdentity</title>
<a xlink:href="protected.components.UserIdentity.html" xlink:title="UserIdentity" target="_parent">
<polygon fill="none" stroke="black" points="632,-466 534,-466 534,-430 632,-430 632,-466"/>
<text text-anchor="middle" x="583" y="-445.1" font-family="Courier,monospace" font-size="11.00">UserIdentity</text>
</a>
</g>
<!-- \\CUserIdentity -->
<g id="node59" class="node"><title>\\CUserIdentity</title>
<ellipse fill="none" stroke="black" cx="339" cy="-72" rx="82.0244" ry="18.3848"/>
<text text-anchor="middle" x="339" y="-68.4" font-family="Times Roman,serif" font-size="14.00" fill="gray">\CUserIdentity</text>
</g>
<!-- \\UserIdentity&#45;&gt;\\CUserIdentity -->
<g id="edge41" class="edge"><title>\\UserIdentity&#45;&gt;\\CUserIdentity</title>
<path fill="none" stroke="black" d="M533.707,-439.655C522.622,-435.656 511.836,-429.743 504,-421 406.127,-311.795 532.399,-205.887 432,-99 427.36,-94.06 421.875,-90.0063 415.926,-86.6822"/>
<polygon fill="none" stroke="black" points="417.449,-83.5306 406.924,-82.3159 414.394,-89.829 417.449,-83.5306"/>
</g>
<!-- \\Controller -->
<g id="node22" class="node"><title>\\Controller</title>
<a xlink:href="protected.components.Controller.html" xlink:title="Controller" target="_parent">
<polygon fill="none" stroke="black" points="381,-1654 297,-1654 297,-1618 381,-1618 381,-1654"/>
<text text-anchor="middle" x="339" y="-1633.1" font-family="Courier,monospace" font-size="11.00">Controller</text>
</a>
</g>
<!-- \\CController -->
<g id="node61" class="node"><title>\\CController</title>
<ellipse fill="none" stroke="black" cx="87" cy="-1636" rx="70.2092" ry="18.3848"/>
<text text-anchor="middle" x="87" y="-1632.4" font-family="Times Roman,serif" font-size="14.00" fill="gray">\CController</text>
</g>
<!-- \\Controller&#45;&gt;\\CController -->
<g id="edge43" class="edge"><title>\\Controller&#45;&gt;\\CController</title>
<path fill="none" stroke="black" d="M296.821,-1636C261.798,-1636 210.962,-1636 168.101,-1636"/>
<polygon fill="none" stroke="black" points="167.959,-1632.5 157.958,-1636 167.958,-1639.5 167.959,-1632.5"/>
</g>
<!-- \\WebUser -->
<g id="node23" class="node"><title>\\WebUser</title>
<a xlink:href="protected.components.WebUser.html" xlink:title="WebUser" target="_parent">
<polygon fill="none" stroke="black" points="615,-412 551,-412 551,-376 615,-376 615,-412"/>
<text text-anchor="middle" x="583" y="-391.1" font-family="Courier,monospace" font-size="11.00">WebUser</text>
</a>
</g>
<!-- \\CWebUser -->
<g id="node63" class="node"><title>\\CWebUser</title>
<ellipse fill="none" stroke="black" cx="339" cy="-18" rx="65.7609" ry="18.3848"/>
<text text-anchor="middle" x="339" y="-14.4" font-family="Times Roman,serif" font-size="14.00" fill="gray">\CWebUser</text>
</g>
<!-- \\WebUser&#45;&gt;\\CWebUser -->
<g id="edge45" class="edge"><title>\\WebUser&#45;&gt;\\CWebUser</title>
<path fill="none" stroke="black" d="M580.579,-375.639C571.97,-317.842 537.486,-137.986 432,-45 424.792,-38.6465 416.168,-33.7842 407.119,-30.0638"/>
<polygon fill="none" stroke="black" points="408.171,-26.7219 397.577,-26.5856 405.773,-33.2986 408.171,-26.7219"/>
</g>
<!-- \\AppointmentController -->
<g id="node24" class="node"><title>\\AppointmentController</title>
<a xlink:href="protected.controllers.AppointmentController.html" xlink:title="AppointmentController" target="_parent">
<polygon fill="none" stroke="black" points="662,-1870 504,-1870 504,-1834 662,-1834 662,-1870"/>
<text text-anchor="middle" x="583" y="-1849.1" font-family="Courier,monospace" font-size="11.00">AppointmentController</text>
</a>
</g>
<!-- \\AppointmentController&#45;&gt;\\Controller -->
<g id="edge47" class="edge"><title>\\AppointmentController&#45;&gt;\\Controller</title>
<path fill="none" stroke="black" d="M519.87,-1833.86C514.314,-1831.26 508.934,-1828.31 504,-1825 437.934,-1780.65 382.134,-1703.35 355.592,-1662.71"/>
<polygon fill="none" stroke="black" points="358.436,-1660.67 350.08,-1654.15 352.551,-1664.46 358.436,-1660.67"/>
</g>
<!-- \\UserController -->
<g id="node25" class="node"><title>\\UserController</title>
<a xlink:href="protected.controllers.UserController.html" xlink:title="UserController" target="_parent">
<polygon fill="none" stroke="black" points="638,-1816 528,-1816 528,-1780 638,-1780 638,-1816"/>
<text text-anchor="middle" x="583" y="-1795.1" font-family="Courier,monospace" font-size="11.00">UserController</text>
</a>
</g>
<!-- \\UserController&#45;&gt;\\Controller -->
<g id="edge49" class="edge"><title>\\UserController&#45;&gt;\\Controller</title>
<path fill="none" stroke="black" d="M527.094,-1781.7C519.142,-1778.58 511.22,-1775.02 504,-1771 449.132,-1740.49 394.534,-1691.14 363.937,-1661.31"/>
<polygon fill="none" stroke="black" points="366.27,-1658.7 356.69,-1654.17 361.358,-1663.69 366.27,-1658.7"/>
</g>
<!-- \\DateController -->
<g id="node26" class="node"><title>\\DateController</title>
<a xlink:href="protected.controllers.DateController.html" xlink:title="DateController" target="_parent">
<polygon fill="none" stroke="black" points="638,-1762 528,-1762 528,-1726 638,-1726 638,-1762"/>
<text text-anchor="middle" x="583" y="-1741.1" font-family="Courier,monospace" font-size="11.00">DateController</text>
</a>
</g>
<!-- \\DateController&#45;&gt;\\Controller -->
<g id="edge51" class="edge"><title>\\DateController&#45;&gt;\\Controller</title>
<path fill="none" stroke="black" d="M527.417,-1726C519.497,-1723.15 511.498,-1720.11 504,-1717 461.424,-1699.36 414.373,-1675.84 381.446,-1658.69"/>
<polygon fill="none" stroke="black" points="383.032,-1655.57 372.549,-1654.04 379.785,-1661.78 383.032,-1655.57"/>
</g>
<!-- \\UserRoleController -->
<g id="node27" class="node"><title>\\UserRoleController</title>
<a xlink:href="protected.controllers.UserRoleController.html" xlink:title="UserRoleController" target="_parent">
<polygon fill="none" stroke="black" points="652,-1708 514,-1708 514,-1672 652,-1672 652,-1708"/>
<text text-anchor="middle" x="583" y="-1687.1" font-family="Courier,monospace" font-size="11.00">UserRoleController</text>
</a>
</g>
<!-- \\UserRoleController&#45;&gt;\\Controller -->
<g id="edge53" class="edge"><title>\\UserRoleController&#45;&gt;\\Controller</title>
<path fill="none" stroke="black" d="M513.732,-1674.67C474.877,-1666.07 427.186,-1655.52 391.449,-1647.61"/>
<polygon fill="none" stroke="black" points="391.756,-1644.09 381.236,-1645.35 390.243,-1650.93 391.756,-1644.09"/>
</g>
<!-- \\ChildController -->
<g id="node28" class="node"><title>\\ChildController</title>
<a xlink:href="protected.controllers.ChildController.html" xlink:title="ChildController" target="_parent">
<polygon fill="none" stroke="black" points="642,-1654 524,-1654 524,-1618 642,-1618 642,-1654"/>
<text text-anchor="middle" x="583" y="-1633.1" font-family="Courier,monospace" font-size="11.00">ChildController</text>
</a>
</g>
<!-- \\ChildController&#45;&gt;\\Controller -->
<g id="edge55" class="edge"><title>\\ChildController&#45;&gt;\\Controller</title>
<path fill="none" stroke="black" d="M523.934,-1636C483.41,-1636 430.129,-1636 391.17,-1636"/>
<polygon fill="none" stroke="black" points="391.088,-1632.5 381.088,-1636 391.088,-1639.5 391.088,-1632.5"/>
</g>
<!-- \\RoleController -->
<g id="node29" class="node"><title>\\RoleController</title>
<a xlink:href="protected.controllers.RoleController.html" xlink:title="RoleController" target="_parent">
<polygon fill="none" stroke="black" points="638,-1600 528,-1600 528,-1564 638,-1564 638,-1600"/>
<text text-anchor="middle" x="583" y="-1579.1" font-family="Courier,monospace" font-size="11.00">RoleController</text>
</a>
</g>
<!-- \\RoleController&#45;&gt;\\Controller -->
<g id="edge57" class="edge"><title>\\RoleController&#45;&gt;\\Controller</title>
<path fill="none" stroke="black" d="M527.327,-1594.32C486.353,-1603.39 431.039,-1615.63 390.967,-1624.5"/>
<polygon fill="none" stroke="black" points="390.133,-1621.1 381.125,-1626.68 391.645,-1627.93 390.133,-1621.1"/>
</g>
<!-- \\TanController -->
<g id="node30" class="node"><title>\\TanController</title>
<a xlink:href="protected.controllers.TanController.html" xlink:title="TanController" target="_parent">
<polygon fill="none" stroke="black" points="635,-1546 531,-1546 531,-1510 635,-1510 635,-1546"/>
<text text-anchor="middle" x="583" y="-1525.1" font-family="Courier,monospace" font-size="11.00">TanController</text>
</a>
</g>
<!-- \\TanController&#45;&gt;\\Controller -->
<g id="edge59" class="edge"><title>\\TanController&#45;&gt;\\Controller</title>
<path fill="none" stroke="black" d="M530.858,-1542.85C521.658,-1546.3 512.359,-1550.35 504,-1555 467.851,-1575.12 469.082,-1595.66 432,-1614 419.315,-1620.27 404.759,-1624.81 390.986,-1628.07"/>
<polygon fill="none" stroke="black" points="390.156,-1624.67 381.134,-1630.22 391.651,-1631.51 390.156,-1624.67"/>
</g>
<!-- \\ParentChildController -->
<g id="node31" class="node"><title>\\ParentChildController</title>
<a xlink:href="protected.controllers.ParentChildController.html" xlink:title="ParentChildController" target="_parent">
<polygon fill="none" stroke="black" points="662,-1492 504,-1492 504,-1456 662,-1456 662,-1492"/>
<text text-anchor="middle" x="583" y="-1471.1" font-family="Courier,monospace" font-size="11.00">ParentChildController</text>
</a>
</g>
<!-- \\ParentChildController&#45;&gt;\\Controller -->
<g id="edge61" class="edge"><title>\\ParentChildController&#45;&gt;\\Controller</title>
<path fill="none" stroke="black" d="M517.729,-1492.19C512.863,-1494.76 508.215,-1497.68 504,-1501 457.191,-1537.81 480.54,-1579.5 432,-1614 420.138,-1622.43 405.487,-1627.67 391.351,-1630.91"/>
<polygon fill="none" stroke="black" points="390.319,-1627.54 381.196,-1632.93 391.687,-1634.41 390.319,-1627.54"/>
</g>
<!-- \\SiteController -->
<g id="node32" class="node"><title>\\SiteController</title>
<a xlink:href="protected.controllers.SiteController.html" xlink:title="SiteController" target="_parent">
<polygon fill="none" stroke="black" points="638,-1438 528,-1438 528,-1402 638,-1402 638,-1438"/>
<text text-anchor="middle" x="583" y="-1417.1" font-family="Courier,monospace" font-size="11.00">SiteController</text>
</a>
</g>
<!-- \\SiteController&#45;&gt;\\Controller -->
<g id="edge63" class="edge"><title>\\SiteController&#45;&gt;\\Controller</title>
<path fill="none" stroke="black" d="M527.428,-1432.33C518.891,-1436.01 510.703,-1440.8 504,-1447 444.669,-1501.89 493.923,-1562.05 432,-1614 420.536,-1623.62 405.607,-1629.19 391.078,-1632.37"/>
<polygon fill="none" stroke="black" points="390.325,-1628.95 381.13,-1634.21 391.6,-1635.83 390.325,-1628.95"/>
</g>
</g>
</svg>
