<?xml version="1.0" encoding="UTF-8" standalone="no"?>
<!DOCTYPE svg PUBLIC "-//W3C//DTD SVG 1.1//EN"
 "http://www.w3.org/Graphics/SVG/1.1/DTD/svg11.dtd">
<!-- Generated by graphviz version 2.26.3 (20100126.1600)
 -->
<!-- Title: G Pages: 1 -->
<svg width="828pt" height="2942pt"
 viewBox="0.00 0.00 828.00 2942.00" xmlns="http://www.w3.org/2000/svg" xmlns:xlink="http://www.w3.org/1999/xlink">
<g id="graph1" class="graph" transform="scale(1 1) rotate(0) translate(4 2938)">
<title>G</title>
<polygon fill="white" stroke="white" points="-4,5 -4,-2938 825,-2938 825,5 -4,5"/>
<g id="graph2" class="cluster"><title>cluster_global</title>
<polyline fill="none" stroke="gray" points="20,-476 800,-476 "/>
<path fill="none" stroke="gray" d="M800,-476C806,-476 812,-482 812,-488"/>
<polyline fill="none" stroke="gray" points="812,-488 812,-2914 "/>
<path fill="none" stroke="gray" d="M812,-2914C812,-2920 806,-2926 800,-2926"/>
<polyline fill="none" stroke="gray" points="800,-2926 20,-2926 "/>
<path fill="none" stroke="gray" d="M20,-2926C14,-2926 8,-2920 8,-2914"/>
<polyline fill="none" stroke="gray" points="8,-2914 8,-488 "/>
<path fill="none" stroke="gray" d="M8,-488C8,-482 14,-476 20,-476"/>
<text text-anchor="middle" x="410" y="-2912.1" font-family="Times Roman,serif" font-size="11.00" fill="gray">global</text>
</g>
<!-- \\ContactForm -->
<g id="node2" class="node"><title>\\ContactForm</title>
<a xlink:href="protected.models.ContactForm.html" xlink:title="ContactForm" target="_parent">
<polygon fill="none" stroke="black" points="726,-1762 636,-1762 636,-1726 726,-1726 726,-1762"/>
<text text-anchor="middle" x="681" y="-1741.1" font-family="Courier,monospace" font-size="11.00">ContactForm</text>
</a>
</g>
<!-- \\CFormModel -->
<g id="node53" class="node"><title>\\CFormModel</title>
<ellipse fill="none" stroke="black" cx="393" cy="-450" rx="74.9533" ry="18.3848"/>
<text text-anchor="middle" x="393" y="-446.4" font-family="Times Roman,serif" font-size="14.00" fill="gray">\CFormModel</text>
</g>
<!-- \\ContactForm&#45;&gt;\\CFormModel -->
<g id="edge3" class="edge"><title>\\ContactForm&#45;&gt;\\CFormModel</title>
<path fill="none" stroke="black" d="M635.26,-1746.57C608.602,-1745.4 576.658,-1738.87 558,-1717 378.15,-1506.16 664.136,-684.292 486,-472 482.267,-467.552 477.817,-463.908 472.915,-460.933"/>
<polygon fill="none" stroke="black" points="474.166,-457.644 463.661,-456.27 471.016,-463.896 474.166,-457.644"/>
</g>
<!-- \\Role -->
<g id="node3" class="node"><title>\\Role</title>
<a xlink:href="protected.models.Role.html" xlink:title="Role" target="_parent">
<polygon fill="none" stroke="black" points="708,-1384 654,-1384 654,-1348 708,-1348 708,-1384"/>
<text text-anchor="middle" x="681" y="-1363.1" font-family="Courier,monospace" font-size="11.00">Role</text>
</a>
</g>
<!-- \\CActiveRecord -->
<g id="node55" class="node"><title>\\CActiveRecord</title>
<ellipse fill="none" stroke="black" cx="393" cy="-396" rx="84.8528" ry="18.3848"/>
<text text-anchor="middle" x="393" y="-392.4" font-family="Times Roman,serif" font-size="14.00" fill="gray">\CActiveRecord</text>
</g>
<!-- \\Role&#45;&gt;\\CActiveRecord -->
<g id="edge5" class="edge"><title>\\Role&#45;&gt;\\CActiveRecord</title>
<path fill="none" stroke="black" d="M653.886,-1368.52C625.406,-1369.51 581.55,-1366.04 558,-1339 423.891,-1185.03 614.919,-581.338 486,-423 482.192,-418.323 477.625,-414.426 472.586,-411.183"/>
<polygon fill="none" stroke="black" points="474.163,-408.057 463.712,-406.321 470.799,-414.196 474.163,-408.057"/>
</g>
<!-- \\NewPw -->
<g id="node4" class="node"><title>\\NewPw</title>
<a xlink:href="protected.models.NewPw.html" xlink:title="NewPw" target="_parent">
<polygon fill="none" stroke="black" points="708,-1708 654,-1708 654,-1672 708,-1672 708,-1708"/>
<text text-anchor="middle" x="681" y="-1687.1" font-family="Courier,monospace" font-size="11.00">NewPw</text>
</a>
</g>
<!-- \\NewPw&#45;&gt;\\CFormModel -->
<g id="edge7" class="edge"><title>\\NewPw&#45;&gt;\\CFormModel</title>
<path fill="none" stroke="black" d="M653.791,-1692.6C625.229,-1693.67 581.304,-1690.25 558,-1663 385.66,-1461.5 656.701,-674.893 486,-472 482.261,-467.556 477.807,-463.917 472.902,-460.944"/>
<polygon fill="none" stroke="black" points="474.15,-457.654 463.644,-456.284 471.003,-463.907 474.15,-457.654"/>
</g>
<!-- \\UserRole -->
<g id="node5" class="node"><title>\\UserRole</title>
<a xlink:href="protected.models.UserRole.html" xlink:title="UserRole" target="_parent">
<polygon fill="none" stroke="black" points="716,-1330 646,-1330 646,-1294 716,-1294 716,-1330"/>
<text text-anchor="middle" x="681" y="-1309.1" font-family="Courier,monospace" font-size="11.00">UserRole</text>
</a>
</g>
<!-- \\UserRole&#45;&gt;\\CActiveRecord -->
<g id="edge9" class="edge"><title>\\UserRole&#45;&gt;\\CActiveRecord</title>
<path fill="none" stroke="black" d="M645.46,-1314.64C617.347,-1314.6 579.384,-1309.43 558,-1285 431.393,-1140.36 607.731,-571.765 486,-423 482.18,-418.332 477.605,-414.442 472.56,-411.204"/>
<polygon fill="none" stroke="black" points="474.132,-408.074 463.679,-406.347 470.774,-414.216 474.132,-408.074"/>
</g>
<!-- \\Tan -->
<g id="node6" class="node"><title>\\Tan</title>
<a xlink:href="protected.models.Tan.html" xlink:title="Tan" target="_parent">
<polygon fill="none" stroke="black" points="708,-1276 654,-1276 654,-1240 708,-1240 708,-1276"/>
<text text-anchor="middle" x="681" y="-1255.1" font-family="Courier,monospace" font-size="11.00">Tan</text>
</a>
</g>
<!-- \\Tan&#45;&gt;\\CActiveRecord -->
<g id="edge11" class="edge"><title>\\Tan&#45;&gt;\\CActiveRecord</title>
<path fill="none" stroke="black" d="M653.94,-1260.47C625.507,-1261.42 581.69,-1257.91 558,-1231 438.892,-1095.69 600.546,-562.196 486,-423 482.099,-418.26 477.419,-414.322 472.261,-411.055"/>
<polygon fill="none" stroke="black" points="473.647,-407.826 463.183,-406.166 470.328,-413.989 473.647,-407.826"/>
</g>
<!-- \\Child -->
<g id="node7" class="node"><title>\\Child</title>
<a xlink:href="protected.models.Child.html" xlink:title="Child" target="_parent">
<polygon fill="none" stroke="black" points="708,-1222 654,-1222 654,-1186 708,-1186 708,-1222"/>
<text text-anchor="middle" x="681" y="-1201.1" font-family="Courier,monospace" font-size="11.00">Child</text>
</a>
</g>
<!-- \\Child&#45;&gt;\\CActiveRecord -->
<g id="edge13" class="edge"><title>\\Child&#45;&gt;\\CActiveRecord</title>
<path fill="none" stroke="black" d="M653.973,-1206.44C625.568,-1207.37 581.775,-1203.84 558,-1177 446.388,-1051.01 593.364,-552.63 486,-423 482.084,-418.272 477.393,-414.343 472.228,-411.082"/>
<polygon fill="none" stroke="black" points="473.606,-407.85 463.14,-406.201 470.294,-414.017 473.606,-407.85"/>
</g>
<!-- \\LoginForm -->
<g id="node8" class="node"><title>\\LoginForm</title>
<a xlink:href="protected.models.LoginForm.html" xlink:title="LoginForm" target="_parent">
<polygon fill="none" stroke="black" points="719,-1654 643,-1654 643,-1618 719,-1618 719,-1654"/>
<text text-anchor="middle" x="681" y="-1633.1" font-family="Courier,monospace" font-size="11.00">LoginForm</text>
</a>
</g>
<!-- \\LoginForm&#45;&gt;\\CFormModel -->
<g id="edge15" class="edge"><title>\\LoginForm&#45;&gt;\\CFormModel</title>
<path fill="none" stroke="black" d="M642.45,-1638.74C614.6,-1638.41 578.425,-1632.81 558,-1609 393.17,-1416.83 649.267,-665.495 486,-472 482.255,-467.562 477.796,-463.926 472.888,-460.956"/>
<polygon fill="none" stroke="black" points="474.132,-457.664 463.625,-456.3 470.988,-463.918 474.132,-457.664"/>
</g>
<!-- \\Appointment -->
<g id="node9" class="node"><title>\\Appointment</title>
<a xlink:href="protected.models.Appointment.html" xlink:title="Appointment" target="_parent">
<polygon fill="none" stroke="black" points="726,-1168 636,-1168 636,-1132 726,-1132 726,-1168"/>
<text text-anchor="middle" x="681" y="-1147.1" font-family="Courier,monospace" font-size="11.00">Appointment</text>
</a>
</g>
<!-- \\Appointment&#45;&gt;\\CActiveRecord -->
<g id="edge17" class="edge"><title>\\Appointment&#45;&gt;\\CActiveRecord</title>
<path fill="none" stroke="black" d="M635.301,-1152.26C608.831,-1150.94 577.069,-1144.37 558,-1123 349.76,-889.654 686.371,-663.137 486,-423 482.067,-418.286 477.364,-414.368 472.19,-411.114"/>
<polygon fill="none" stroke="black" points="473.56,-407.877 463.092,-406.242 470.255,-414.048 473.56,-407.877"/>
</g>
<!-- \\CsvUpload -->
<g id="node10" class="node"><title>\\CsvUpload</title>
<a xlink:href="protected.models.CsvUpload.html" xlink:title="CsvUpload" target="_parent">
<polygon fill="none" stroke="black" points="719,-1600 643,-1600 643,-1564 719,-1564 719,-1600"/>
<text text-anchor="middle" x="681" y="-1579.1" font-family="Courier,monospace" font-size="11.00">CsvUpload</text>
</a>
</g>
<!-- \\CsvUpload&#45;&gt;\\CFormModel -->
<g id="edge19" class="edge"><title>\\CsvUpload&#45;&gt;\\CFormModel</title>
<path fill="none" stroke="black" d="M642.472,-1584.72C614.633,-1584.38 578.463,-1578.78 558,-1555 400.679,-1372.17 641.835,-656.098 486,-472 482.248,-467.568 477.784,-463.936 472.872,-460.969"/>
<polygon fill="none" stroke="black" points="474.112,-457.676 463.605,-456.317 470.972,-463.932 474.112,-457.676"/>
</g>
<!-- \\ParentChild -->
<g id="node11" class="node"><title>\\ParentChild</title>
<a xlink:href="protected.models.ParentChild.html" xlink:title="ParentChild" target="_parent">
<polygon fill="none" stroke="black" points="726,-1546 636,-1546 636,-1510 726,-1510 726,-1546"/>
<text text-anchor="middle" x="681" y="-1525.1" font-family="Courier,monospace" font-size="11.00">ParentChild</text>
</a>
</g>
<!-- \\ParentChild&#45;&gt;\\CActiveRecord -->
<g id="edge21" class="edge"><title>\\ParentChild&#45;&gt;\\CActiveRecord</title>
<path fill="none" stroke="black" d="M635.329,-1530.51C608.697,-1529.32 576.755,-1522.79 558,-1501 401.374,-1319.04 636.493,-610.069 486,-423 482.219,-418.3 477.672,-414.388 472.647,-411.134"/>
<polygon fill="none" stroke="black" points="474.238,-408.015 463.79,-406.257 470.862,-414.147 474.238,-408.015"/>
</g>
<!-- \\ChangePwd -->
<g id="node12" class="node"><title>\\ChangePwd</title>
<a xlink:href="protected.models.ChangePwd.html" xlink:title="ChangePwd" target="_parent">
<polygon fill="none" stroke="black" points="719,-1816 643,-1816 643,-1780 719,-1780 719,-1816"/>
<text text-anchor="middle" x="681" y="-1795.1" font-family="Courier,monospace" font-size="11.00">ChangePwd</text>
</a>
</g>
<!-- \\ChangePwd&#45;&gt;\\CFormModel -->
<g id="edge23" class="edge"><title>\\ChangePwd&#45;&gt;\\CFormModel</title>
<path fill="none" stroke="black" d="M642.396,-1800.78C614.518,-1800.48 578.332,-1794.89 558,-1771 370.638,-1550.82 671.572,-693.692 486,-472 482.273,-467.547 477.826,-463.901 472.927,-460.923"/>
<polygon fill="none" stroke="black" points="474.181,-457.636 463.676,-456.257 471.028,-463.886 474.181,-457.636"/>
</g>
<!-- \\Date -->
<g id="node13" class="node"><title>\\Date</title>
<a xlink:href="protected.models.Date.html" xlink:title="Date" target="_parent">
<polygon fill="none" stroke="black" points="708,-1492 654,-1492 654,-1456 708,-1456 708,-1492"/>
<text text-anchor="middle" x="681" y="-1471.1" font-family="Courier,monospace" font-size="11.00">Date</text>
</a>
</g>
<!-- \\Date&#45;&gt;\\CActiveRecord -->
<g id="edge25" class="edge"><title>\\Date&#45;&gt;\\CActiveRecord</title>
<path fill="none" stroke="black" d="M653.842,-1476.56C625.325,-1477.58 581.438,-1474.13 558,-1447 408.881,-1274.37 629.3,-600.49 486,-423 482.211,-418.307 477.658,-414.399 472.629,-411.149"/>
<polygon fill="none" stroke="black" points="474.216,-408.027 463.767,-406.276 470.843,-414.161 474.216,-408.027"/>
</g>
<!-- \\User -->
<g id="node14" class="node"><title>\\User</title>
<a xlink:href="protected.models.User.html" xlink:title="User" target="_parent">
<polygon fill="none" stroke="black" points="708,-1438 654,-1438 654,-1402 708,-1402 708,-1438"/>
<text text-anchor="middle" x="681" y="-1417.1" font-family="Courier,monospace" font-size="11.00">User</text>
</a>
</g>
<!-- \\User&#45;&gt;\\CActiveRecord -->
<g id="edge27" class="edge"><title>\\User&#45;&gt;\\CActiveRecord</title>
<path fill="none" stroke="black" d="M653.863,-1422.54C625.363,-1423.55 581.491,-1420.09 558,-1393 416.387,-1229.7 622.109,-590.913 486,-423 482.202,-418.315 477.642,-414.412 472.608,-411.165"/>
<polygon fill="none" stroke="black" points="474.191,-408.041 463.741,-406.297 470.822,-414.177 474.191,-408.041"/>
</g>
<!-- \\YiiDebugToolbarTest -->
<g id="node15" class="node"><title>\\YiiDebugToolbarTest</title>
<a xlink:href="protected.tests.unit.YiiDebugToolbarTest.html" xlink:title="YiiDebugToolbarTest" target="_parent">
<polygon fill="none" stroke="black" points="753,-1114 609,-1114 609,-1078 753,-1078 753,-1114"/>
<text text-anchor="middle" x="681" y="-1093.1" font-family="Courier,monospace" font-size="11.00">YiiDebugToolbarTest</text>
</a>
</g>
<!-- \\CTestCase -->
<g id="node68" class="node"><title>\\CTestCase</title>
<ellipse fill="none" stroke="black" cx="393" cy="-342" rx="65.0538" ry="18.3848"/>
<text text-anchor="middle" x="393" y="-338.4" font-family="Times Roman,serif" font-size="14.00" fill="gray">\CTestCase</text>
</g>
<!-- \\YiiDebugToolbarTest&#45;&gt;\\CTestCase -->
<g id="edge29" class="edge"><title>\\YiiDebugToolbarTest&#45;&gt;\\CTestCase</title>
<path fill="none" stroke="black" d="M608.481,-1094.99C589.558,-1091.12 570.883,-1083.44 558,-1069 349.76,-835.654 686.371,-609.137 486,-369 479.844,-361.623 471.803,-356.194 463.023,-352.211"/>
<polygon fill="none" stroke="black" points="464.244,-348.93 453.656,-348.562 461.704,-355.453 464.244,-348.93"/>
</g>
<!-- \\WebTestCase -->
<g id="node16" class="node"><title>\\WebTestCase</title>
<a xlink:href="protected.tests.WebTestCase.html" xlink:title="WebTestCase" target="_parent">
<polygon fill="none" stroke="black" points="438,-2788 348,-2788 348,-2752 438,-2752 438,-2788"/>
<text text-anchor="middle" x="393" y="-2767.1" font-family="Courier,monospace" font-size="11.00">WebTestCase</text>
</a>
</g>
<!-- \\CWebTestCase -->
<g id="node70" class="node"><title>\\CWebTestCase</title>
<ellipse fill="none" stroke="black" cx="122" cy="-450" rx="85.7684" ry="18.3848"/>
<text text-anchor="middle" x="122" y="-446.4" font-family="Times Roman,serif" font-size="14.00" fill="gray">\CWebTestCase</text>
</g>
<!-- \\WebTestCase&#45;&gt;\\CWebTestCase -->
<g id="edge31" class="edge"><title>\\WebTestCase&#45;&gt;\\CWebTestCase</title>
<path fill="none" stroke="black" d="M378.591,-2751.92C356.793,-2723.33 316.253,-2665.08 300,-2608 267.482,-2493.81 304.484,-562.819 228,-472 223.967,-467.211 219.188,-463.296 213.927,-460.108"/>
<polygon fill="none" stroke="black" points="215.164,-456.811 204.663,-455.404 211.995,-463.052 215.164,-456.811"/>
</g>
<!-- \\SiteTest -->
<g id="node17" class="node"><title>\\SiteTest</title>
<a xlink:href="protected.tests.functional.SiteTest.html" xlink:title="SiteTest" target="_parent">
<polygon fill="none" stroke="black" points="716,-2896 646,-2896 646,-2860 716,-2860 716,-2896"/>
<text text-anchor="middle" x="681" y="-2875.1" font-family="Courier,monospace" font-size="11.00">SiteTest</text>
</a>
</g>
<!-- \\SiteTest&#45;&gt;\\WebTestCase -->
<g id="edge33" class="edge"><title>\\SiteTest&#45;&gt;\\WebTestCase</title>
<path fill="none" stroke="black" d="M645.385,-2872.52C620.484,-2868.12 586.688,-2861.03 558,-2851 513.53,-2835.46 465.481,-2810.91 432.768,-2792.9"/>
<polygon fill="none" stroke="black" points="434.405,-2789.81 423.963,-2788.01 431.005,-2795.93 434.405,-2789.81"/>
</g>
<!-- \\CustomButtonColumn -->
<g id="node18" class="node"><title>\\CustomButtonColumn</title>
<a xlink:href="protected.components.CustomButtonColumn.html" xlink:title="CustomButtonColumn" target="_parent">
<polygon fill="none" stroke="black" points="750,-1006 612,-1006 612,-970 750,-970 750,-1006"/>
<text text-anchor="middle" x="681" y="-985.1" font-family="Courier,monospace" font-size="11.00">CustomButtonColumn</text>
</a>
</g>
<!-- \\CButtonColumn -->
<g id="node73" class="node"><title>\\CButtonColumn</title>
<ellipse fill="none" stroke="black" cx="393" cy="-288" rx="92.1303" ry="18.3848"/>
<text text-anchor="middle" x="393" y="-284.4" font-family="Times Roman,serif" font-size="14.00" fill="gray">\CButtonColumn</text>
</g>
<!-- \\CustomButtonColumn&#45;&gt;\\CButtonColumn -->
<g id="edge35" class="edge"><title>\\CustomButtonColumn&#45;&gt;\\CButtonColumn</title>
<path fill="none" stroke="black" d="M611.768,-987.54C591.769,-983.89 571.675,-976.194 558,-961 364.735,-746.278 672.023,-536.025 486,-315 482.57,-310.924 478.563,-307.443 474.177,-304.473"/>
<polygon fill="none" stroke="black" points="475.734,-301.331 465.323,-299.368 472.238,-307.395 475.734,-301.331"/>
</g>
<!-- \\DataColumn -->
<g id="node19" class="node"><title>\\DataColumn</title>
<a xlink:href="protected.components.DataColumn.html" xlink:title="DataColumn" target="_parent">
<polygon fill="none" stroke="black" points="723,-952 639,-952 639,-916 723,-916 723,-952"/>
<text text-anchor="middle" x="681" y="-931.1" font-family="Courier,monospace" font-size="11.00">DataColumn</text>
</a>
</g>
<!-- \\CDataColumn -->
<g id="node75" class="node"><title>\\CDataColumn</title>
<ellipse fill="none" stroke="black" cx="393" cy="-234" rx="82.2301" ry="18.3848"/>
<text text-anchor="middle" x="393" y="-230.4" font-family="Times Roman,serif" font-size="14.00" fill="gray">\CDataColumn</text>
</g>
<!-- \\DataColumn&#45;&gt;\\CDataColumn -->
<g id="edge37" class="edge"><title>\\DataColumn&#45;&gt;\\CDataColumn</title>
<path fill="none" stroke="black" d="M638.965,-936.353C611.855,-935.429 578.038,-929.262 558,-907 364.735,-692.278 672.023,-482.025 486,-261 481.808,-256.02 476.757,-251.928 471.202,-248.571"/>
<polygon fill="none" stroke="black" points="472.602,-245.354 462.11,-243.876 469.39,-251.574 472.602,-245.354"/>
</g>
<!-- \\UserIdentity -->
<g id="node20" class="node"><title>\\UserIdentity</title>
<a xlink:href="protected.components.UserIdentity.html" xlink:title="UserIdentity" target="_parent">
<polygon fill="none" stroke="black" points="730,-898 632,-898 632,-862 730,-862 730,-898"/>
<text text-anchor="middle" x="681" y="-877.1" font-family="Courier,monospace" font-size="11.00">UserIdentity</text>
</a>
</g>
<!-- \\CUserIdentity -->
<g id="node77" class="node"><title>\\CUserIdentity</title>
<ellipse fill="none" stroke="black" cx="393" cy="-180" rx="82.0244" ry="18.3848"/>
<text text-anchor="middle" x="393" y="-176.4" font-family="Times Roman,serif" font-size="14.00" fill="gray">\CUserIdentity</text>
</g>
<!-- \\UserIdentity&#45;&gt;\\CUserIdentity -->
<g id="edge39" class="edge"><title>\\UserIdentity&#45;&gt;\\CUserIdentity</title>
<path fill="none" stroke="black" d="M631.7,-881.982C606.036,-880.226 576.282,-873.312 558,-853 364.735,-638.278 672.023,-428.025 486,-207 481.808,-202.02 476.757,-197.928 471.202,-194.571"/>
<polygon fill="none" stroke="black" points="472.602,-191.354 462.11,-189.876 469.39,-197.574 472.602,-191.354"/>
</g>
<!-- \\Controller -->
<g id="node21" class="node"><title>\\Controller</title>
<a xlink:href="protected.components.Controller.html" xlink:title="Controller" target="_parent">
<polygon fill="none" stroke="black" points="435,-2599 351,-2599 351,-2563 435,-2563 435,-2599"/>
<text text-anchor="middle" x="393" y="-2578.1" font-family="Courier,monospace" font-size="11.00">Controller</text>
</a>
</g>
<!-- \\CController -->
<g id="node79" class="node"><title>\\CController</title>
<ellipse fill="none" stroke="black" cx="122" cy="-396" rx="70.2092" ry="18.3848"/>
<text text-anchor="middle" x="122" y="-392.4" font-family="Times Roman,serif" font-size="14.00" fill="gray">\CController</text>
</g>
<!-- \\Controller&#45;&gt;\\CController -->
<g id="edge41" class="edge"><title>\\Controller&#45;&gt;\\CController</title>
<path fill="none" stroke="black" d="M387.123,-2562.77C369.978,-2508.64 319.969,-2343.85 300,-2203 286.108,-2105.01 290.301,-499.9 228,-423 220.742,-414.041 210.964,-407.813 200.27,-403.524"/>
<polygon fill="none" stroke="black" points="201.272,-400.168 190.677,-400.235 199.001,-406.789 201.272,-400.168"/>
</g>
<!-- \\WebUser -->
<g id="node22" class="node"><title>\\WebUser</title>
<a xlink:href="protected.components.WebUser.html" xlink:title="WebUser" target="_parent">
<polygon fill="none" stroke="black" points="713,-844 649,-844 649,-808 713,-808 713,-844"/>
<text text-anchor="middle" x="681" y="-823.1" font-family="Courier,monospace" font-size="11.00">WebUser</text>
</a>
</g>
<!-- \\CWebUser -->
<g id="node81" class="node"><title>\\CWebUser</title>
<ellipse fill="none" stroke="black" cx="393" cy="-126" rx="65.7609" ry="18.3848"/>
<text text-anchor="middle" x="393" y="-122.4" font-family="Times Roman,serif" font-size="14.00" fill="gray">\CWebUser</text>
</g>
<!-- \\WebUser&#45;&gt;\\CWebUser -->
<g id="edge43" class="edge"><title>\\WebUser&#45;&gt;\\CWebUser</title>
<path fill="none" stroke="black" d="M648.983,-828.472C620.719,-828.742 580.597,-824.106 558,-799 364.735,-584.278 672.023,-374.025 486,-153 480.037,-145.915 472.335,-140.629 463.919,-136.696"/>
<polygon fill="none" stroke="black" points="465.138,-133.414 454.554,-132.938 462.531,-139.91 465.138,-133.414"/>
</g>
<!-- \\AppointmentController -->
<g id="node23" class="node"><title>\\AppointmentController</title>
<a xlink:href="protected.controllers.AppointmentController.html" xlink:title="AppointmentController" target="_parent">
<polygon fill="none" stroke="black" points="760,-2842 602,-2842 602,-2806 760,-2806 760,-2842"/>
<text text-anchor="middle" x="681" y="-2821.1" font-family="Courier,monospace" font-size="11.00">AppointmentController</text>
</a>
</g>
<!-- \\AppointmentController&#45;&gt;\\Controller -->
<g id="edge45" class="edge"><title>\\AppointmentController&#45;&gt;\\Controller</title>
<path fill="none" stroke="black" d="M601.968,-2815.23C586.597,-2811.21 571.183,-2805.4 558,-2797 483.132,-2749.3 429.198,-2655.07 405.859,-2608.45"/>
<polygon fill="none" stroke="black" points="408.896,-2606.69 401.347,-2599.25 402.612,-2609.77 408.896,-2606.69"/>
</g>
<!-- \\UserController -->
<g id="node24" class="node"><title>\\UserController</title>
<a xlink:href="protected.controllers.UserController.html" xlink:title="UserController" target="_parent">
<polygon fill="none" stroke="black" points="736,-2788 626,-2788 626,-2752 736,-2752 736,-2788"/>
<text text-anchor="middle" x="681" y="-2767.1" font-family="Courier,monospace" font-size="11.00">UserController</text>
</a>
</g>
<!-- \\UserController&#45;&gt;\\Controller -->
<g id="edge47" class="edge"><title>\\UserController&#45;&gt;\\Controller</title>
<path fill="none" stroke="black" d="M625.408,-2764.53C603.435,-2760.68 578.572,-2754.14 558,-2743 495.084,-2708.94 439.803,-2643.79 412.018,-2607.35"/>
<polygon fill="none" stroke="black" points="414.678,-2605.06 405.875,-2599.17 409.08,-2609.27 414.678,-2605.06"/>
</g>
<!-- \\DateController -->
<g id="node25" class="node"><title>\\DateController</title>
<a xlink:href="protected.controllers.DateController.html" xlink:title="DateController" target="_parent">
<polygon fill="none" stroke="black" points="736,-2734 626,-2734 626,-2698 736,-2698 736,-2734"/>
<text text-anchor="middle" x="681" y="-2713.1" font-family="Courier,monospace" font-size="11.00">DateController</text>
</a>
</g>
<!-- \\DateController&#45;&gt;\\Controller -->
<g id="edge49" class="edge"><title>\\DateController&#45;&gt;\\Controller</title>
<path fill="none" stroke="black" d="M625.498,-2708.24C603.891,-2704.09 579.264,-2697.94 558,-2689 506.861,-2667.51 454.362,-2629.96 422.708,-2605.29"/>
<polygon fill="none" stroke="black" points="424.756,-2602.45 414.737,-2599 420.422,-2607.94 424.756,-2602.45"/>
</g>
<!-- \\UserRoleController -->
<g id="node26" class="node"><title>\\UserRoleController</title>
<a xlink:href="protected.controllers.UserRoleController.html" xlink:title="UserRoleController" target="_parent">
<polygon fill="none" stroke="black" points="750,-2680 612,-2680 612,-2644 750,-2644 750,-2680"/>
<text text-anchor="middle" x="681" y="-2659.1" font-family="Courier,monospace" font-size="11.00">UserRoleController</text>
</a>
</g>
<!-- \\UserRoleController&#45;&gt;\\Controller -->
<g id="edge51" class="edge"><title>\\UserRoleController&#45;&gt;\\Controller</title>
<path fill="none" stroke="black" d="M611.746,-2648.07C594.131,-2644.18 575.296,-2639.72 558,-2635 519.656,-2624.55 477.037,-2610.53 444.72,-2599.4"/>
<polygon fill="none" stroke="black" points="445.632,-2596.02 435.037,-2596.05 443.341,-2602.63 445.632,-2596.02"/>
</g>
<!-- \\ChildController -->
<g id="node27" class="node"><title>\\ChildController</title>
<a xlink:href="protected.controllers.ChildController.html" xlink:title="ChildController" target="_parent">
<polygon fill="none" stroke="black" points="740,-2626 622,-2626 622,-2590 740,-2590 740,-2626"/>
<text text-anchor="middle" x="681" y="-2605.1" font-family="Courier,monospace" font-size="11.00">ChildController</text>
</a>
</g>
<!-- \\ChildController&#45;&gt;\\Controller -->
<g id="edge53" class="edge"><title>\\ChildController&#45;&gt;\\Controller</title>
<path fill="none" stroke="black" d="M621.675,-2602.44C569.869,-2597.58 495.383,-2590.6 445.653,-2585.94"/>
<polygon fill="none" stroke="black" points="445.717,-2582.43 435.434,-2584.98 445.064,-2589.4 445.717,-2582.43"/>
</g>
<!-- \\RoleController -->
<g id="node28" class="node"><title>\\RoleController</title>
<a xlink:href="protected.controllers.RoleController.html" xlink:title="RoleController" target="_parent">
<polygon fill="none" stroke="black" points="736,-2572 626,-2572 626,-2536 736,-2536 736,-2572"/>
<text text-anchor="middle" x="681" y="-2551.1" font-family="Courier,monospace" font-size="11.00">RoleController</text>
</a>
</g>
<!-- \\RoleController&#45;&gt;\\Controller -->
<g id="edge55" class="edge"><title>\\RoleController&#45;&gt;\\Controller</title>
<path fill="none" stroke="black" d="M625.471,-2559.21C573.478,-2564.08 496.361,-2571.31 445.406,-2576.09"/>
<polygon fill="none" stroke="black" points="444.893,-2572.62 435.263,-2577.04 445.546,-2579.59 444.893,-2572.62"/>
</g>
<!-- \\TanController -->
<g id="node29" class="node"><title>\\TanController</title>
<a xlink:href="protected.controllers.TanController.html" xlink:title="TanController" target="_parent">
<polygon fill="none" stroke="black" points="733,-2518 629,-2518 629,-2482 733,-2482 733,-2518"/>
<text text-anchor="middle" x="681" y="-2497.1" font-family="Courier,monospace" font-size="11.00">TanController</text>
</a>
</g>
<!-- \\TanController&#45;&gt;\\Controller -->
<g id="edge57" class="edge"><title>\\TanController&#45;&gt;\\Controller</title>
<path fill="none" stroke="black" d="M628.951,-2510.22C606.938,-2514.85 581.096,-2520.7 558,-2527 519.656,-2537.45 477.037,-2551.47 444.72,-2562.6"/>
<polygon fill="none" stroke="black" points="443.341,-2559.37 435.037,-2565.95 445.632,-2565.98 443.341,-2559.37"/>
</g>
<!-- \\ParentChildController -->
<g id="node30" class="node"><title>\\ParentChildController</title>
<a xlink:href="protected.controllers.ParentChildController.html" xlink:title="ParentChildController" target="_parent">
<polygon fill="none" stroke="black" points="760,-2464 602,-2464 602,-2428 760,-2428 760,-2464"/>
<text text-anchor="middle" x="681" y="-2443.1" font-family="Courier,monospace" font-size="11.00">ParentChildController</text>
</a>
</g>
<!-- \\ParentChildController&#45;&gt;\\Controller -->
<g id="edge59" class="edge"><title>\\ParentChildController&#45;&gt;\\Controller</title>
<path fill="none" stroke="black" d="M601.926,-2458.9C587.031,-2462.57 571.806,-2467.2 558,-2473 506.861,-2494.49 454.362,-2532.04 422.708,-2556.71"/>
<polygon fill="none" stroke="black" points="420.422,-2554.06 414.737,-2563 424.756,-2559.55 420.422,-2554.06"/>
</g>
<!-- \\SiteController -->
<g id="node31" class="node"><title>\\SiteController</title>
<a xlink:href="protected.controllers.SiteController.html" xlink:title="SiteController" target="_parent">
<polygon fill="none" stroke="black" points="736,-2410 626,-2410 626,-2374 736,-2374 736,-2410"/>
<text text-anchor="middle" x="681" y="-2389.1" font-family="Courier,monospace" font-size="11.00">SiteController</text>
</a>
</g>
<!-- \\SiteController&#45;&gt;\\Controller -->
<g id="edge61" class="edge"><title>\\SiteController&#45;&gt;\\Controller</title>
<path fill="none" stroke="black" d="M625.408,-2397.47C603.435,-2401.32 578.572,-2407.86 558,-2419 495.084,-2453.06 439.803,-2518.21 412.018,-2554.65"/>
<polygon fill="none" stroke="black" points="409.08,-2552.73 405.875,-2562.83 414.678,-2556.94 409.08,-2552.73"/>
</g>
<!-- \\YiiDebugToolbarPanelSettings -->
<g id="node32" class="node"><title>\\YiiDebugToolbarPanelSettings</title>
<a xlink:href="protected.extensions.yii-debug-toolbar.panels.YiiDebugToolbarPanelSettings.html" xlink:title="YiiDebugToolbarPanelSettings" target="_parent">
<polygon fill="none" stroke="black" points="784,-2194 578,-2194 578,-2158 784,-2158 784,-2194"/>
<text text-anchor="middle" x="681" y="-2173.1" font-family="Courier,monospace" font-size="11.00">YiiDebugToolbarPanelSettings</text>
</a>
</g>
<!-- \\YiiDebugToolbarPanel -->
<g id="node43" class="node"><title>\\YiiDebugToolbarPanel</title>
<a xlink:href="protected.extensions.yii-debug-toolbar.YiiDebugToolbarPanel.html" xlink:title="«abstract»&lt;br/&gt;YiiDebugToolbarPanel" target="_parent">
<polygon fill="none" stroke="black" points="469,-2194 317,-2194 317,-2158 469,-2158 469,-2194"/>
<text text-anchor="start" x="359" y="-2181.43" font-family="Courier,monospace" font-size="11.00">«abstract»</text>
<text text-anchor="start" x="325" y="-2168.23" font-family="Courier,monospace" font-size="11.00">YiiDebugToolbarPanel</text>
</a>
</g>
<!-- \\YiiDebugToolbarPanelSettings&#45;&gt;\\YiiDebugToolbarPanel -->
<g id="edge63" class="edge"><title>\\YiiDebugToolbarPanelSettings&#45;&gt;\\YiiDebugToolbarPanel</title>
<path fill="none" stroke="black" d="M577.839,-2176C545.791,-2176 510.802,-2176 479.972,-2176"/>
<polygon fill="none" stroke="black" points="479.687,-2172.5 469.687,-2176 479.687,-2179.5 479.687,-2172.5"/>
</g>
<!-- \\YiiDebugToolbarPanelSql -->
<g id="node33" class="node"><title>\\YiiDebugToolbarPanelSql</title>
<a xlink:href="protected.extensions.yii-debug-toolbar.panels.YiiDebugToolbarPanelSql.html" xlink:title="YiiDebugToolbarPanelSql" target="_parent">
<polygon fill="none" stroke="black" points="767,-2140 595,-2140 595,-2104 767,-2104 767,-2140"/>
<text text-anchor="middle" x="681" y="-2119.1" font-family="Courier,monospace" font-size="11.00">YiiDebugToolbarPanelSql</text>
</a>
</g>
<!-- \\YiiDebugToolbarPanelSql&#45;&gt;\\YiiDebugToolbarPanel -->
<g id="edge65" class="edge"><title>\\YiiDebugToolbarPanelSql&#45;&gt;\\YiiDebugToolbarPanel</title>
<path fill="none" stroke="black" d="M594.981,-2138.13C558.619,-2144.95 516.337,-2152.87 479.883,-2159.71"/>
<polygon fill="none" stroke="black" points="478.949,-2156.32 469.765,-2161.61 480.239,-2163.2 478.949,-2156.32"/>
</g>
<!-- \\YiiDebugToolbarPanelRequest -->
<g id="node34" class="node"><title>\\YiiDebugToolbarPanelRequest</title>
<a xlink:href="protected.extensions.yii-debug-toolbar.panels.YiiDebugToolbarPanelRequest.html" xlink:title="YiiDebugToolbarPanelRequest" target="_parent">
<polygon fill="none" stroke="black" points="780,-2086 582,-2086 582,-2050 780,-2050 780,-2086"/>
<text text-anchor="middle" x="681" y="-2065.1" font-family="Courier,monospace" font-size="11.00">YiiDebugToolbarPanelRequest</text>
</a>
</g>
<!-- \\YiiDebugToolbarPanelRequest&#45;&gt;\\YiiDebugToolbarPanel -->
<g id="edge67" class="edge"><title>\\YiiDebugToolbarPanelRequest&#45;&gt;\\YiiDebugToolbarPanel</title>
<path fill="none" stroke="black" d="M587.323,-2086.09C577.329,-2088.75 567.391,-2091.72 558,-2095 513.53,-2110.54 465.481,-2135.09 432.768,-2153.1"/>
<polygon fill="none" stroke="black" points="431.005,-2150.07 423.963,-2157.99 434.405,-2156.19 431.005,-2150.07"/>
</g>
<!-- \\YiiDebugToolbarPanelLogging -->
<g id="node35" class="node"><title>\\YiiDebugToolbarPanelLogging</title>
<a xlink:href="protected.extensions.yii-debug-toolbar.panels.YiiDebugToolbarPanelLogging.html" xlink:title="YiiDebugToolbarPanelLogging" target="_parent">
<polygon fill="none" stroke="black" points="780,-2356 582,-2356 582,-2320 780,-2320 780,-2356"/>
<text text-anchor="middle" x="681" y="-2335.1" font-family="Courier,monospace" font-size="11.00">YiiDebugToolbarPanelLogging</text>
</a>
</g>
<!-- \\YiiDebugToolbarPanelLogging&#45;&gt;\\YiiDebugToolbarPanel -->
<g id="edge69" class="edge"><title>\\YiiDebugToolbarPanelLogging&#45;&gt;\\YiiDebugToolbarPanel</title>
<path fill="none" stroke="black" d="M581.271,-2320.38C573.236,-2317.68 565.379,-2314.57 558,-2311 500.879,-2283.34 446.253,-2232.17 416.406,-2201.39"/>
<polygon fill="none" stroke="black" points="418.807,-2198.84 409.365,-2194.03 413.749,-2203.68 418.807,-2198.84"/>
</g>
<!-- \\YiiDebugToolbarPanelServer -->
<g id="node36" class="node"><title>\\YiiDebugToolbarPanelServer</title>
<a xlink:href="protected.extensions.yii-debug-toolbar.panels.YiiDebugToolbarPanelServer.html" xlink:title="YiiDebugToolbarPanelServer" target="_parent">
<polygon fill="none" stroke="black" points="777,-2302 585,-2302 585,-2266 777,-2266 777,-2302"/>
<text text-anchor="middle" x="681" y="-2281.1" font-family="Courier,monospace" font-size="11.00">YiiDebugToolbarPanelServer</text>
</a>
</g>
<!-- \\YiiDebugToolbarPanelServer&#45;&gt;\\YiiDebugToolbarPanel -->
<g id="edge71" class="edge"><title>\\YiiDebugToolbarPanelServer&#45;&gt;\\YiiDebugToolbarPanel</title>
<path fill="none" stroke="black" d="M587.323,-2265.91C577.329,-2263.25 567.391,-2260.28 558,-2257 513.53,-2241.46 465.481,-2216.91 432.768,-2198.9"/>
<polygon fill="none" stroke="black" points="434.405,-2195.81 423.963,-2194.01 431.005,-2201.93 434.405,-2195.81"/>
</g>
<!-- \\YiiDebugToolbarPanelViewsRendering -->
<g id="node37" class="node"><title>\\YiiDebugToolbarPanelViewsRendering</title>
<a xlink:href="protected.extensions.yii-debug-toolbar.panels.YiiDebugToolbarPanelViewsRendering.html" xlink:title="YiiDebugToolbarPanelViewsRendering" target="_parent">
<polygon fill="none" stroke="black" points="804,-2248 558,-2248 558,-2212 804,-2212 804,-2248"/>
<text text-anchor="middle" x="681" y="-2227.1" font-family="Courier,monospace" font-size="11.00">YiiDebugToolbarPanelViewsRendering</text>
</a>
</g>
<!-- \\YiiDebugToolbarPanelViewsRendering&#45;&gt;\\YiiDebugToolbarPanel -->
<g id="edge73" class="edge"><title>\\YiiDebugToolbarPanelViewsRendering&#45;&gt;\\YiiDebugToolbarPanel</title>
<path fill="none" stroke="black" d="M584.7,-2211.94C550.764,-2205.58 512.843,-2198.47 479.744,-2192.26"/>
<polygon fill="none" stroke="black" points="480.11,-2188.77 469.636,-2190.37 478.819,-2195.65 480.11,-2188.77"/>
</g>
<!-- \\YiiDebugViewHelper -->
<g id="node38" class="node"><title>\\YiiDebugViewHelper</title>
<a xlink:href="protected.extensions.yii-debug-toolbar.YiiDebugViewHelper.html" xlink:title="YiiDebugViewHelper" target="_parent">
<polygon fill="none" stroke="black" points="750,-1060 612,-1060 612,-1024 750,-1024 750,-1060"/>
<text text-anchor="middle" x="681" y="-1039.1" font-family="Courier,monospace" font-size="11.00">YiiDebugViewHelper</text>
</a>
</g>
<!-- \\ProxyComponent -->
<g id="node39" class="node"><title>\\ProxyComponent</title>
<a xlink:href="protected.extensions.yii-debug-toolbar.components.ProxyComponent.html" xlink:title="ProxyComponent" target="_parent">
<polygon fill="none" stroke="black" points="448,-2011 338,-2011 338,-1975 448,-1975 448,-2011"/>
<text text-anchor="middle" x="393" y="-1990.1" font-family="Courier,monospace" font-size="11.00">ProxyComponent</text>
</a>
</g>
<!-- \\CComponent -->
<g id="node98" class="node"><title>\\CComponent</title>
<ellipse fill="none" stroke="black" cx="122" cy="-342" rx="77.7817" ry="18.3848"/>
<text text-anchor="middle" x="122" y="-338.4" font-family="Times Roman,serif" font-size="14.00" fill="gray">\CComponent</text>
</g>
<!-- \\ProxyComponent&#45;&gt;\\CComponent -->
<g id="edge75" class="edge"><title>\\ProxyComponent&#45;&gt;\\CComponent</title>
<path fill="none" stroke="black" d="M337.445,-1991.54C323.213,-1988.36 309.313,-1982.24 300,-1971 186.347,-1833.77 340.474,-507.194 228,-369 221.861,-361.457 213.936,-355.852 205.186,-351.71"/>
<polygon fill="none" stroke="black" points="206.391,-348.422 195.809,-347.905 203.759,-354.908 206.391,-348.422"/>
</g>
<!-- \\YiiDebugViewRenderer -->
<g id="node40" class="node"><title>\\YiiDebugViewRenderer</title>
<a xlink:href="protected.extensions.yii-debug-toolbar.components.YiiDebugViewRenderer.html" xlink:title="YiiDebugViewRenderer" target="_parent">
<polygon fill="none" stroke="black" points="757,-2032 605,-2032 605,-1996 757,-1996 757,-2032"/>
<text text-anchor="middle" x="681" y="-2011.1" font-family="Courier,monospace" font-size="11.00">YiiDebugViewRenderer</text>
</a>
</g>
<!-- \\YiiDebugViewRenderer&#45;&gt;\\ProxyComponent -->
<g id="edge77" class="edge"><title>\\YiiDebugViewRenderer&#45;&gt;\\ProxyComponent</title>
<path fill="none" stroke="black" d="M604.955,-2008.46C559.595,-2005.15 502.564,-2000.99 459.089,-1997.82"/>
<polygon fill="none" stroke="black" points="459.135,-1994.31 448.907,-1997.08 458.626,-2001.29 459.135,-1994.31"/>
</g>
<!-- \\YiiDebugToolbarRoute -->
<g id="node41" class="node"><title>\\YiiDebugToolbarRoute</title>
<a xlink:href="protected.extensions.yii-debug-toolbar.YiiDebugToolbarRoute.html" xlink:title="YiiDebugToolbarRoute" target="_parent">
<polygon fill="none" stroke="black" points="757,-790 605,-790 605,-754 757,-754 757,-790"/>
<text text-anchor="middle" x="681" y="-769.1" font-family="Courier,monospace" font-size="11.00">YiiDebugToolbarRoute</text>
</a>
</g>
<!-- \\CLogRoute -->
<g id="node101" class="node"><title>\\CLogRoute</title>
<ellipse fill="none" stroke="black" cx="393" cy="-72" rx="67.8823" ry="18.3848"/>
<text text-anchor="middle" x="393" y="-68.4" font-family="Times Roman,serif" font-size="14.00" fill="gray">\CLogRoute</text>
</g>
<!-- \\YiiDebugToolbarRoute&#45;&gt;\\CLogRoute -->
<g id="edge79" class="edge"><title>\\YiiDebugToolbarRoute&#45;&gt;\\CLogRoute</title>
<path fill="none" stroke="black" d="M604.716,-770.078C587.13,-765.976 570.066,-758.406 558,-745 364.735,-530.278 672.023,-320.025 486,-99 480.258,-92.1776 472.903,-87.0231 464.85,-83.1384"/>
<polygon fill="none" stroke="black" points="466.089,-79.8632 455.511,-79.2707 463.411,-86.3306 466.089,-79.8632"/>
</g>
<!-- \\YiiDebugToolbarResourceUsage -->
<g id="node42" class="node"><title>\\YiiDebugToolbarResourceUsage</title>
<a xlink:href="protected.extensions.yii-debug-toolbar.widgets.YiiDebugToolbarResourceUsage.html" xlink:title="YiiDebugToolbarResourceUsage" target="_parent">
<polygon fill="none" stroke="black" points="784,-1870 578,-1870 578,-1834 784,-1834 784,-1870"/>
<text text-anchor="middle" x="681" y="-1849.1" font-family="Courier,monospace" font-size="11.00">YiiDebugToolbarResourceUsage</text>
</a>
</g>
<!-- \\CWidget -->
<g id="node103" class="node"><title>\\CWidget</title>
<ellipse fill="none" stroke="black" cx="122" cy="-288" rx="56.0679" ry="18.3848"/>
<text text-anchor="middle" x="122" y="-284.4" font-family="Times Roman,serif" font-size="14.00" fill="gray">\CWidget</text>
</g>
<!-- \\YiiDebugToolbarResourceUsage&#45;&gt;\\CWidget -->
<g id="edge81" class="edge"><title>\\YiiDebugToolbarResourceUsage&#45;&gt;\\CWidget</title>
<path fill="none" stroke="black" d="M594.106,-1870.03C520.369,-1883.06 422.049,-1894.37 393,-1869"/>
<path fill="none" stroke="black" d="M393,-1869C131.43,-1640.57 455.307,-577.547 228,-315 217.803,-303.223 203.258,-296.221 188.197,-292.143"/>
<polygon fill="none" stroke="black" points="188.795,-288.69 178.266,-289.865 187.23,-295.512 188.795,-288.69"/>
</g>
<!-- \\YiiDebugToolbarPanelInterface -->
<g id="node45" class="node"><title>\\YiiDebugToolbarPanelInterface</title>
<a xlink:href="protected.extensions.yii-debug-toolbar.YiiDebugToolbar.html" xlink:title="YiiDebugToolbarPanelInterface" target="_parent">
<polygon fill="none" stroke="black" points="228,-2194 16,-2194 16,-2158 228,-2158 228,-2194"/>
<text text-anchor="middle" x="122" y="-2173.1" font-family="Courier,monospace" font-size="11.00">YiiDebugToolbarPanelInterface</text>
</a>
</g>
<!-- \\YiiDebugToolbarPanel&#45;&gt;\\YiiDebugToolbarPanelInterface -->
<g id="edge91" class="edge"><title>\\YiiDebugToolbarPanel&#45;&gt;\\YiiDebugToolbarPanelInterface</title>
<path fill="none" stroke="black" stroke-dasharray="1,5" d="M316.429,-2176C292.141,-2176 264.716,-2176 238.286,-2176"/>
<polygon fill="none" stroke="black" points="238.214,-2172.5 228.214,-2176 238.214,-2179.5 238.214,-2172.5"/>
</g>
<!-- \\YiiDebugToolbarPanel&#45;&gt;\\CWidget -->
<g id="edge83" class="edge"><title>\\YiiDebugToolbarPanel&#45;&gt;\\CWidget</title>
<path fill="none" stroke="black" d="M377.931,-2157.76C356.049,-2130.03 316.314,-2074.69 300,-2020 245.799,-1838.3 347.492,-462.224 228,-315 218.134,-302.844 203.629,-295.717 188.497,-291.641"/>
<polygon fill="none" stroke="black" points="189.03,-288.174 178.504,-289.381 187.486,-295.001 189.03,-288.174"/>
</g>
<!-- \\YiiDebug -->
<g id="node44" class="node"><title>\\YiiDebug</title>
<a xlink:href="protected.extensions.yii-debug-toolbar.YiiDebug.html" xlink:title="YiiDebug" target="_parent">
<polygon fill="none" stroke="black" points="716,-1978 646,-1978 646,-1942 716,-1942 716,-1978"/>
<text text-anchor="middle" x="681" y="-1957.1" font-family="Courier,monospace" font-size="11.00">YiiDebug</text>
</a>
</g>
<!-- \\YiiDebug&#45;&gt;\\CComponent -->
<g id="edge85" class="edge"><title>\\YiiDebug&#45;&gt;\\CComponent</title>
<path fill="none" stroke="black" d="M645.461,-1958.21C559.627,-1953.07 344.784,-1935.16 300,-1883 190.293,-1755.22 334.478,-499.48 228,-369 221.851,-361.465 213.921,-355.865 205.167,-351.726"/>
<polygon fill="none" stroke="black" points="206.37,-348.437 195.788,-347.922 203.739,-354.924 206.37,-348.437"/>
</g>
<!-- \\YiiDebugToolbar -->
<g id="node46" class="node"><title>\\YiiDebugToolbar</title>
<a xlink:href="protected.extensions.yii-debug-toolbar.YiiDebugToolbar.html" xlink:title="YiiDebugToolbar" target="_parent">
<polygon fill="none" stroke="black" points="740,-1924 622,-1924 622,-1888 740,-1888 740,-1924"/>
<text text-anchor="middle" x="681" y="-1903.1" font-family="Courier,monospace" font-size="11.00">YiiDebugToolbar</text>
</a>
</g>
<!-- \\YiiDebugToolbar&#45;&gt;\\CWidget -->
<g id="edge87" class="edge"><title>\\YiiDebugToolbar&#45;&gt;\\CWidget</title>
<path fill="none" stroke="black" d="M621.743,-1899.22C538.702,-1889.6 397.283,-1872.74 393,-1869"/>
</g>
<!-- \\POP3 -->
<g id="node47" class="node"><title>\\POP3</title>
<a xlink:href="protected.extensions.mailer.phpmailer.class.pop3.html" xlink:title="POP3" target="_parent">
<polygon fill="none" stroke="black" points="708,-736 654,-736 654,-700 708,-700 708,-736"/>
<text text-anchor="middle" x="681" y="-715.1" font-family="Courier,monospace" font-size="11.00">POP3</text>
</a>
</g>
<!-- \\SMTP -->
<g id="node48" class="node"><title>\\SMTP</title>
<a xlink:href="protected.extensions.mailer.phpmailer.class.smtp.html" xlink:title="SMTP" target="_parent">
<polygon fill="none" stroke="black" points="708,-682 654,-682 654,-646 708,-646 708,-682"/>
<text text-anchor="middle" x="681" y="-661.1" font-family="Courier,monospace" font-size="11.00">SMTP</text>
</a>
</g>
<!-- \\PHPMailer -->
<g id="node49" class="node"><title>\\PHPMailer</title>
<a xlink:href="protected.extensions.mailer.phpmailer.class.phpmailer.html" xlink:title="PHPMailer" target="_parent">
<polygon fill="none" stroke="black" points="719,-628 643,-628 643,-592 719,-592 719,-628"/>
<text text-anchor="middle" x="681" y="-607.1" font-family="Courier,monospace" font-size="11.00">PHPMailer</text>
</a>
</g>
<!-- \\phpmailerException -->
<g id="node50" class="node"><title>\\phpmailerException</title>
<a xlink:href="protected.extensions.mailer.phpmailer.class.phpmailer.html" xlink:title="phpmailerException" target="_parent">
<polygon fill="none" stroke="black" points="750,-574 612,-574 612,-538 750,-538 750,-574"/>
<text text-anchor="middle" x="681" y="-553.1" font-family="Courier,monospace" font-size="11.00">phpmailerException</text>
</a>
</g>
<!-- \\Exception -->
<g id="node108" class="node"><title>\\Exception</title>
<ellipse fill="none" stroke="black" cx="393" cy="-18" rx="62.9325" ry="18.3848"/>
<text text-anchor="middle" x="393" y="-14.4" font-family="Times Roman,serif" font-size="14.00" fill="gray">\Exception</text>
</g>
<!-- \\phpmailerException&#45;&gt;\\Exception -->
<g id="edge89" class="edge"><title>\\phpmailerException&#45;&gt;\\Exception</title>
<path fill="none" stroke="black" d="M611.782,-555.174C591.904,-551.487 571.877,-543.86 558,-529 409.568,-370.051 629.068,-208.794 486,-45 479.447,-37.4976 470.945,-32.0216 461.749,-28.036"/>
<polygon fill="none" stroke="black" points="462.959,-24.7519 452.366,-24.5273 460.507,-31.3084 462.959,-24.7519"/>
</g>
<!-- \\EMailer -->
<g id="node51" class="node"><title>\\EMailer</title>
<a xlink:href="protected.extensions.mailer.EMailer.html" xlink:title="EMailer" target="_parent">
<polygon fill="none" stroke="black" points="713,-520 649,-520 649,-484 713,-484 713,-520"/>
<text text-anchor="middle" x="681" y="-499.1" font-family="Courier,monospace" font-size="11.00">EMailer</text>
</a>
</g>
</g>
</svg>
