<?xml version="1.0" encoding="UTF-8" standalone="no"?>
<!DOCTYPE svg PUBLIC "-//W3C//DTD SVG 1.1//EN"
 "http://www.w3.org/Graphics/SVG/1.1/DTD/svg11.dtd">
<!-- Generated by graphviz version 2.26.3 (20100126.1600)
 -->
<!-- Title: G Pages: 1 -->
<svg width="686pt" height="1970pt"
 viewBox="0.00 0.00 686.00 1970.00" xmlns="http://www.w3.org/2000/svg" xmlns:xlink="http://www.w3.org/1999/xlink">
<g id="graph1" class="graph" transform="scale(1 1) rotate(0) translate(4 1966)">
<title>G</title>
<polygon fill="white" stroke="white" points="-4,5 -4,-1966 683,-1966 683,5 -4,5"/>
<g id="graph2" class="cluster"><title>cluster_global</title>
<polyline fill="none" stroke="gray" points="297,-368 658,-368 "/>
<path fill="none" stroke="gray" d="M658,-368C664,-368 670,-374 670,-380"/>
<polyline fill="none" stroke="gray" points="670,-380 670,-1942 "/>
<path fill="none" stroke="gray" d="M670,-1942C670,-1948 664,-1954 658,-1954"/>
<polyline fill="none" stroke="gray" points="658,-1954 297,-1954 "/>
<path fill="none" stroke="gray" d="M297,-1954C291,-1954 285,-1948 285,-1942"/>
<polyline fill="none" stroke="gray" points="285,-1942 285,-380 "/>
<path fill="none" stroke="gray" d="M285,-380C285,-374 291,-368 297,-368"/>
<text text-anchor="middle" x="477.5" y="-1940.1" font-family="Times Roman,serif" font-size="11.00" fill="gray">global</text>
</g>
<!-- \\WebTestCase -->
<g id="node2" class="node"><title>\\WebTestCase</title>
<a xlink:href="protected.tests.WebTestCase.html" xlink:title="WebTestCase" target="_parent">
<polygon fill="none" stroke="black" points="384,-1924 294,-1924 294,-1888 384,-1888 384,-1924"/>
<text text-anchor="middle" x="339" y="-1903.1" font-family="Courier,monospace" font-size="11.00">WebTestCase</text>
</a>
</g>
<!-- \\CWebTestCase -->
<g id="node34" class="node"><title>\\CWebTestCase</title>
<ellipse fill="none" stroke="black" cx="87" cy="-1906" rx="85.7684" ry="18.3848"/>
<text text-anchor="middle" x="87" y="-1902.4" font-family="Times Roman,serif" font-size="14.00" fill="gray">\CWebTestCase</text>
</g>
<!-- \\WebTestCase&#45;&gt;\\CWebTestCase -->
<g id="edge3" class="edge"><title>\\WebTestCase&#45;&gt;\\CWebTestCase</title>
<path fill="none" stroke="black" d="M293.365,-1906C262.768,-1906 221.32,-1906 183.596,-1906"/>
<polygon fill="none" stroke="black" points="183.582,-1902.5 173.582,-1906 183.582,-1909.5 183.582,-1902.5"/>
</g>
<!-- \\SiteTest -->
<g id="node3" class="node"><title>\\SiteTest</title>
<a xlink:href="protected.tests.functional.SiteTest.html" xlink:title="SiteTest" target="_parent">
<polygon fill="none" stroke="black" points="618,-1924 548,-1924 548,-1888 618,-1888 618,-1924"/>
<text text-anchor="middle" x="583" y="-1903.1" font-family="Courier,monospace" font-size="11.00">SiteTest</text>
</a>
</g>
<!-- \\SiteTest&#45;&gt;\\WebTestCase -->
<g id="edge5" class="edge"><title>\\SiteTest&#45;&gt;\\WebTestCase</title>
<path fill="none" stroke="black" d="M547.259,-1906C507.264,-1906 441.946,-1906 395.121,-1906"/>
<polygon fill="none" stroke="black" points="394.834,-1902.5 384.834,-1906 394.834,-1909.5 394.834,-1902.5"/>
</g>
<!-- \\YiiDebugToolbarTest -->
<g id="node4" class="node"><title>\\YiiDebugToolbarTest</title>
<a xlink:href="protected.tests.unit.YiiDebugToolbarTest.html" xlink:title="YiiDebugToolbarTest" target="_parent">
<polygon fill="none" stroke="black" points="655,-1384 511,-1384 511,-1348 655,-1348 655,-1384"/>
<text text-anchor="middle" x="583" y="-1363.1" font-family="Courier,monospace" font-size="11.00">YiiDebugToolbarTest</text>
</a>
</g>
<!-- \\CTestCase -->
<g id="node37" class="node"><title>\\CTestCase</title>
<ellipse fill="none" stroke="black" cx="339" cy="-342" rx="65.0538" ry="18.3848"/>
<text text-anchor="middle" x="339" y="-338.4" font-family="Times Roman,serif" font-size="14.00" fill="gray">\CTestCase</text>
</g>
<!-- \\YiiDebugToolbarTest&#45;&gt;\\CTestCase -->
<g id="edge7" class="edge"><title>\\YiiDebugToolbarTest&#45;&gt;\\CTestCase</title>
<path fill="none" stroke="black" d="M512.872,-1347.81C509.57,-1345.25 506.569,-1342.33 504,-1339 371.21,-1167.05 572.973,-529.309 432,-364 426.566,-357.628 419.659,-352.913 412.071,-349.45"/>
<polygon fill="none" stroke="black" points="413.123,-346.105 402.532,-345.819 410.633,-352.647 413.123,-346.105"/>
</g>
<!-- \\UserRoleController -->
<g id="node5" class="node"><title>\\UserRoleController</title>
<a xlink:href="protected.controllers.UserRoleController.html" xlink:title="UserRoleController" target="_parent">
<polygon fill="none" stroke="black" points="652,-1870 514,-1870 514,-1834 652,-1834 652,-1870"/>
<text text-anchor="middle" x="583" y="-1849.1" font-family="Courier,monospace" font-size="11.00">UserRoleController</text>
</a>
</g>
<!-- \\Controller -->
<g id="node14" class="node"><title>\\Controller</title>
<a xlink:href="protected.components.Controller.html" xlink:title="Controller" target="_parent">
<polygon fill="none" stroke="black" points="381,-1654 297,-1654 297,-1618 381,-1618 381,-1654"/>
<text text-anchor="middle" x="339" y="-1633.1" font-family="Courier,monospace" font-size="11.00">Controller</text>
</a>
</g>
<!-- \\UserRoleController&#45;&gt;\\Controller -->
<g id="edge9" class="edge"><title>\\UserRoleController&#45;&gt;\\Controller</title>
<path fill="none" stroke="black" d="M519.87,-1833.86C514.314,-1831.26 508.934,-1828.31 504,-1825 437.934,-1780.65 382.134,-1703.35 355.592,-1662.71"/>
<polygon fill="none" stroke="black" points="358.436,-1660.67 350.08,-1654.15 352.551,-1664.46 358.436,-1660.67"/>
</g>
<!-- \\AppointmentController -->
<g id="node6" class="node"><title>\\AppointmentController</title>
<a xlink:href="protected.controllers.AppointmentController.html" xlink:title="AppointmentController" target="_parent">
<polygon fill="none" stroke="black" points="662,-1816 504,-1816 504,-1780 662,-1780 662,-1816"/>
<text text-anchor="middle" x="583" y="-1795.1" font-family="Courier,monospace" font-size="11.00">AppointmentController</text>
</a>
</g>
<!-- \\AppointmentController&#45;&gt;\\Controller -->
<g id="edge11" class="edge"><title>\\AppointmentController&#45;&gt;\\Controller</title>
<path fill="none" stroke="black" d="M522.498,-1779.84C516.11,-1777.19 509.827,-1774.24 504,-1771 449.132,-1740.49 394.534,-1691.14 363.937,-1661.31"/>
<polygon fill="none" stroke="black" points="366.27,-1658.7 356.69,-1654.17 361.358,-1663.69 366.27,-1658.7"/>
</g>
<!-- \\SiteController -->
<g id="node7" class="node"><title>\\SiteController</title>
<a xlink:href="protected.controllers.SiteController.html" xlink:title="SiteController" target="_parent">
<polygon fill="none" stroke="black" points="638,-1762 528,-1762 528,-1726 638,-1726 638,-1762"/>
<text text-anchor="middle" x="583" y="-1741.1" font-family="Courier,monospace" font-size="11.00">SiteController</text>
</a>
</g>
<!-- \\SiteController&#45;&gt;\\Controller -->
<g id="edge13" class="edge"><title>\\SiteController&#45;&gt;\\Controller</title>
<path fill="none" stroke="black" d="M527.417,-1726C519.497,-1723.15 511.498,-1720.11 504,-1717 461.424,-1699.36 414.373,-1675.84 381.446,-1658.69"/>
<polygon fill="none" stroke="black" points="383.032,-1655.57 372.549,-1654.04 379.785,-1661.78 383.032,-1655.57"/>
</g>
<!-- \\ParentChildController -->
<g id="node8" class="node"><title>\\ParentChildController</title>
<a xlink:href="protected.controllers.ParentChildController.html" xlink:title="ParentChildController" target="_parent">
<polygon fill="none" stroke="black" points="662,-1708 504,-1708 504,-1672 662,-1672 662,-1708"/>
<text text-anchor="middle" x="583" y="-1687.1" font-family="Courier,monospace" font-size="11.00">ParentChildController</text>
</a>
</g>
<!-- \\ParentChildController&#45;&gt;\\Controller -->
<g id="edge15" class="edge"><title>\\ParentChildController&#45;&gt;\\Controller</title>
<path fill="none" stroke="black" d="M503.78,-1672.47C466.831,-1664.29 423.887,-1654.79 391.104,-1647.53"/>
<polygon fill="none" stroke="black" points="391.794,-1644.1 381.274,-1645.36 390.282,-1650.93 391.794,-1644.1"/>
</g>
<!-- \\RoleController -->
<g id="node9" class="node"><title>\\RoleController</title>
<a xlink:href="protected.controllers.RoleController.html" xlink:title="RoleController" target="_parent">
<polygon fill="none" stroke="black" points="638,-1654 528,-1654 528,-1618 638,-1618 638,-1654"/>
<text text-anchor="middle" x="583" y="-1633.1" font-family="Courier,monospace" font-size="11.00">RoleController</text>
</a>
</g>
<!-- \\RoleController&#45;&gt;\\Controller -->
<g id="edge17" class="edge"><title>\\RoleController&#45;&gt;\\Controller</title>
<path fill="none" stroke="black" d="M527.327,-1636C486.44,-1636 431.273,-1636 391.222,-1636"/>
<polygon fill="none" stroke="black" points="391.125,-1632.5 381.125,-1636 391.125,-1639.5 391.125,-1632.5"/>
</g>
<!-- \\TanController -->
<g id="node10" class="node"><title>\\TanController</title>
<a xlink:href="protected.controllers.TanController.html" xlink:title="TanController" target="_parent">
<polygon fill="none" stroke="black" points="635,-1600 531,-1600 531,-1564 635,-1564 635,-1600"/>
<text text-anchor="middle" x="583" y="-1579.1" font-family="Courier,monospace" font-size="11.00">TanController</text>
</a>
</g>
<!-- \\TanController&#45;&gt;\\Controller -->
<g id="edge19" class="edge"><title>\\TanController&#45;&gt;\\Controller</title>
<path fill="none" stroke="black" d="M530.955,-1593.52C489.708,-1602.65 432.349,-1615.34 391.09,-1624.47"/>
<polygon fill="none" stroke="black" points="390.239,-1621.08 381.231,-1626.65 391.751,-1627.91 390.239,-1621.08"/>
</g>
<!-- \\ChildController -->
<g id="node11" class="node"><title>\\ChildController</title>
<a xlink:href="protected.controllers.ChildController.html" xlink:title="ChildController" target="_parent">
<polygon fill="none" stroke="black" points="642,-1546 524,-1546 524,-1510 642,-1510 642,-1546"/>
<text text-anchor="middle" x="583" y="-1525.1" font-family="Courier,monospace" font-size="11.00">ChildController</text>
</a>
</g>
<!-- \\ChildController&#45;&gt;\\Controller -->
<g id="edge21" class="edge"><title>\\ChildController&#45;&gt;\\Controller</title>
<path fill="none" stroke="black" d="M523.747,-1545.64C516.93,-1548.42 510.206,-1551.55 504,-1555 467.851,-1575.12 469.082,-1595.66 432,-1614 419.315,-1620.27 404.759,-1624.81 390.986,-1628.07"/>
<polygon fill="none" stroke="black" points="390.156,-1624.67 381.134,-1630.22 391.651,-1631.51 390.156,-1624.67"/>
</g>
<!-- \\UserController -->
<g id="node12" class="node"><title>\\UserController</title>
<a xlink:href="protected.controllers.UserController.html" xlink:title="UserController" target="_parent">
<polygon fill="none" stroke="black" points="638,-1492 528,-1492 528,-1456 638,-1456 638,-1492"/>
<text text-anchor="middle" x="583" y="-1471.1" font-family="Courier,monospace" font-size="11.00">UserController</text>
</a>
</g>
<!-- \\UserController&#45;&gt;\\Controller -->
<g id="edge23" class="edge"><title>\\UserController&#45;&gt;\\Controller</title>
<path fill="none" stroke="black" d="M527.416,-1487.62C519.073,-1491.14 510.95,-1495.53 504,-1501 457.191,-1537.81 480.54,-1579.5 432,-1614 420.138,-1622.43 405.487,-1627.67 391.351,-1630.91"/>
<polygon fill="none" stroke="black" points="390.319,-1627.54 381.196,-1632.93 391.687,-1634.41 390.319,-1627.54"/>
</g>
<!-- \\DateController -->
<g id="node13" class="node"><title>\\DateController</title>
<a xlink:href="protected.controllers.DateController.html" xlink:title="DateController" target="_parent">
<polygon fill="none" stroke="black" points="638,-1438 528,-1438 528,-1402 638,-1402 638,-1438"/>
<text text-anchor="middle" x="583" y="-1417.1" font-family="Courier,monospace" font-size="11.00">DateController</text>
</a>
</g>
<!-- \\DateController&#45;&gt;\\Controller -->
<g id="edge25" class="edge"><title>\\DateController&#45;&gt;\\Controller</title>
<path fill="none" stroke="black" d="M527.428,-1432.33C518.891,-1436.01 510.703,-1440.8 504,-1447 444.669,-1501.89 493.923,-1562.05 432,-1614 420.536,-1623.62 405.607,-1629.19 391.078,-1632.37"/>
<polygon fill="none" stroke="black" points="390.325,-1628.95 381.13,-1634.21 391.6,-1635.83 390.325,-1628.95"/>
</g>
<!-- \\CController -->
<g id="node48" class="node"><title>\\CController</title>
<ellipse fill="none" stroke="black" cx="87" cy="-1636" rx="70.2092" ry="18.3848"/>
<text text-anchor="middle" x="87" y="-1632.4" font-family="Times Roman,serif" font-size="14.00" fill="gray">\CController</text>
</g>
<!-- \\Controller&#45;&gt;\\CController -->
<g id="edge27" class="edge"><title>\\Controller&#45;&gt;\\CController</title>
<path fill="none" stroke="black" d="M296.821,-1636C261.798,-1636 210.962,-1636 168.101,-1636"/>
<polygon fill="none" stroke="black" points="167.959,-1632.5 157.958,-1636 167.958,-1639.5 167.959,-1632.5"/>
</g>
<!-- \\DataColumn -->
<g id="node15" class="node"><title>\\DataColumn</title>
<a xlink:href="protected.components.DataColumn.html" xlink:title="DataColumn" target="_parent">
<polygon fill="none" stroke="black" points="625,-1330 541,-1330 541,-1294 625,-1294 625,-1330"/>
<text text-anchor="middle" x="583" y="-1309.1" font-family="Courier,monospace" font-size="11.00">DataColumn</text>
</a>
</g>
<!-- \\CDataColumn -->
<g id="node50" class="node"><title>\\CDataColumn</title>
<ellipse fill="none" stroke="black" cx="339" cy="-288" rx="82.2301" ry="18.3848"/>
<text text-anchor="middle" x="339" y="-284.4" font-family="Times Roman,serif" font-size="14.00" fill="gray">\CDataColumn</text>
</g>
<!-- \\DataColumn&#45;&gt;\\CDataColumn -->
<g id="edge29" class="edge"><title>\\DataColumn&#45;&gt;\\CDataColumn</title>
<path fill="none" stroke="black" d="M540.617,-1306.92C526.854,-1303.1 512.861,-1296.47 504,-1285 371.855,-1113.95 568.109,-482.913 432,-315 427.97,-310.029 423.083,-305.939 417.682,-302.578"/>
<polygon fill="none" stroke="black" points="419.296,-299.472 408.822,-297.876 416.014,-305.656 419.296,-299.472"/>
</g>
<!-- \\CustomButtonColumn -->
<g id="node16" class="node"><title>\\CustomButtonColumn</title>
<a xlink:href="protected.components.CustomButtonColumn.html" xlink:title="CustomButtonColumn" target="_parent">
<polygon fill="none" stroke="black" points="652,-1276 514,-1276 514,-1240 652,-1240 652,-1276"/>
<text text-anchor="middle" x="583" y="-1255.1" font-family="Courier,monospace" font-size="11.00">CustomButtonColumn</text>
</a>
</g>
<!-- \\CButtonColumn -->
<g id="node52" class="node"><title>\\CButtonColumn</title>
<ellipse fill="none" stroke="black" cx="339" cy="-234" rx="92.1303" ry="18.3848"/>
<text text-anchor="middle" x="339" y="-230.4" font-family="Times Roman,serif" font-size="14.00" fill="gray">\CButtonColumn</text>
</g>
<!-- \\CustomButtonColumn&#45;&gt;\\CButtonColumn -->
<g id="edge31" class="edge"><title>\\CustomButtonColumn&#45;&gt;\\CButtonColumn</title>
<path fill="none" stroke="black" d="M513.908,-1240.59C510.197,-1237.85 506.836,-1234.67 504,-1231 371.855,-1059.95 568.109,-428.913 432,-261 428.645,-256.861 424.696,-253.334 420.351,-250.329"/>
<polygon fill="none" stroke="black" points="421.956,-247.213 411.56,-245.172 418.415,-253.251 421.956,-247.213"/>
</g>
<!-- \\WebUser -->
<g id="node17" class="node"><title>\\WebUser</title>
<a xlink:href="protected.components.WebUser.html" xlink:title="WebUser" target="_parent">
<polygon fill="none" stroke="black" points="615,-1222 551,-1222 551,-1186 615,-1186 615,-1222"/>
<text text-anchor="middle" x="583" y="-1201.1" font-family="Courier,monospace" font-size="11.00">WebUser</text>
</a>
</g>
<!-- \\CWebUser -->
<g id="node54" class="node"><title>\\CWebUser</title>
<ellipse fill="none" stroke="black" cx="339" cy="-180" rx="65.7609" ry="18.3848"/>
<text text-anchor="middle" x="339" y="-176.4" font-family="Times Roman,serif" font-size="14.00" fill="gray">\CWebUser</text>
</g>
<!-- \\WebUser&#45;&gt;\\CWebUser -->
<g id="edge33" class="edge"><title>\\WebUser&#45;&gt;\\CWebUser</title>
<path fill="none" stroke="black" d="M550.813,-1201.29C534.171,-1198.11 515.076,-1191.34 504,-1177 371.855,-1005.95 568.109,-374.913 432,-207 426.169,-199.806 418.542,-194.458 410.162,-190.495"/>
<polygon fill="none" stroke="black" points="411.405,-187.222 400.823,-186.716 408.78,-193.711 411.405,-187.222"/>
</g>
<!-- \\UserIdentity -->
<g id="node18" class="node"><title>\\UserIdentity</title>
<a xlink:href="protected.components.UserIdentity.html" xlink:title="UserIdentity" target="_parent">
<polygon fill="none" stroke="black" points="632,-1168 534,-1168 534,-1132 632,-1132 632,-1168"/>
<text text-anchor="middle" x="583" y="-1147.1" font-family="Courier,monospace" font-size="11.00">UserIdentity</text>
</a>
</g>
<!-- \\CUserIdentity -->
<g id="node56" class="node"><title>\\CUserIdentity</title>
<ellipse fill="none" stroke="black" cx="339" cy="-126" rx="82.0244" ry="18.3848"/>
<text text-anchor="middle" x="339" y="-122.4" font-family="Times Roman,serif" font-size="14.00" fill="gray">\CUserIdentity</text>
</g>
<!-- \\UserIdentity&#45;&gt;\\CUserIdentity -->
<g id="edge35" class="edge"><title>\\UserIdentity&#45;&gt;\\CUserIdentity</title>
<path fill="none" stroke="black" d="M533.604,-1142.72C522.245,-1138.71 511.355,-1132.52 504,-1123 371.855,-951.951 568.109,-320.913 432,-153 427.901,-147.943 422.914,-143.798 417.403,-140.405"/>
<polygon fill="none" stroke="black" points="418.843,-137.209 408.361,-135.669 415.595,-143.41 418.843,-137.209"/>
</g>
<!-- \\LoginForm -->
<g id="node19" class="node"><title>\\LoginForm</title>
<a xlink:href="protected.models.LoginForm.html" xlink:title="LoginForm" target="_parent">
<polygon fill="none" stroke="black" points="621,-1114 545,-1114 545,-1078 621,-1078 621,-1114"/>
<text text-anchor="middle" x="583" y="-1093.1" font-family="Courier,monospace" font-size="11.00">LoginForm</text>
</a>
</g>
<!-- \\CFormModel -->
<g id="node58" class="node"><title>\\CFormModel</title>
<ellipse fill="none" stroke="black" cx="339" cy="-72" rx="74.9533" ry="18.3848"/>
<text text-anchor="middle" x="339" y="-68.4" font-family="Times Roman,serif" font-size="14.00" fill="gray">\CFormModel</text>
</g>
<!-- \\LoginForm&#45;&gt;\\CFormModel -->
<g id="edge37" class="edge"><title>\\LoginForm&#45;&gt;\\CFormModel</title>
<path fill="none" stroke="black" d="M544.324,-1091.88C529.414,-1088.25 513.659,-1081.5 504,-1069 371.855,-897.951 568.109,-266.913 432,-99 427.269,-93.1635 421.356,-88.542 414.817,-84.889"/>
<polygon fill="none" stroke="black" points="416.1,-81.6231 405.566,-80.485 413.091,-87.9435 416.1,-81.6231"/>
</g>
<!-- \\CsvUpload -->
<g id="node20" class="node"><title>\\CsvUpload</title>
<a xlink:href="protected.models.CsvUpload.html" xlink:title="CsvUpload" target="_parent">
<polygon fill="none" stroke="black" points="621,-1060 545,-1060 545,-1024 621,-1024 621,-1060"/>
<text text-anchor="middle" x="583" y="-1039.1" font-family="Courier,monospace" font-size="11.00">CsvUpload</text>
</a>
</g>
<!-- \\CsvUpload&#45;&gt;\\CFormModel -->
<g id="edge39" class="edge"><title>\\CsvUpload&#45;&gt;\\CFormModel</title>
<path fill="none" stroke="black" d="M544.351,-1037.86C529.446,-1034.23 513.686,-1027.48 504,-1015 378.819,-853.691 560.919,-257.338 432,-99 427.256,-93.1738 421.335,-88.559 414.792,-84.9101"/>
<polygon fill="none" stroke="black" points="416.07,-81.6423 405.535,-80.51 413.064,-87.9644 416.07,-81.6423"/>
</g>
<!-- \\User -->
<g id="node21" class="node"><title>\\User</title>
<a xlink:href="protected.models.User.html" xlink:title="User" target="_parent">
<polygon fill="none" stroke="black" points="610,-844 556,-844 556,-808 610,-808 610,-844"/>
<text text-anchor="middle" x="583" y="-823.1" font-family="Courier,monospace" font-size="11.00">User</text>
</a>
</g>
<!-- \\CActiveRecord -->
<g id="node61" class="node"><title>\\CActiveRecord</title>
<ellipse fill="none" stroke="black" cx="339" cy="-18" rx="84.8528" ry="18.3848"/>
<text text-anchor="middle" x="339" y="-14.4" font-family="Times Roman,serif" font-size="14.00" fill="gray">\CActiveRecord</text>
</g>
<!-- \\User&#45;&gt;\\CActiveRecord -->
<g id="edge41" class="edge"><title>\\User&#45;&gt;\\CActiveRecord</title>
<path fill="none" stroke="black" d="M555.636,-824.024C538.065,-821.222 516.305,-814.585 504,-799 399.697,-666.895 539.364,-174.63 432,-45 428.084,-40.2719 423.393,-36.3433 418.228,-33.0823"/>
<polygon fill="none" stroke="black" points="419.606,-29.8498 409.14,-28.2012 416.294,-36.0165 419.606,-29.8498"/>
</g>
<!-- \\Child -->
<g id="node22" class="node"><title>\\Child</title>
<a xlink:href="protected.models.Child.html" xlink:title="Child" target="_parent">
<polygon fill="none" stroke="black" points="610,-790 556,-790 556,-754 610,-754 610,-790"/>
<text text-anchor="middle" x="583" y="-769.1" font-family="Courier,monospace" font-size="11.00">Child</text>
</a>
</g>
<!-- \\Child&#45;&gt;\\CActiveRecord -->
<g id="edge43" class="edge"><title>\\Child&#45;&gt;\\CActiveRecord</title>
<path fill="none" stroke="black" d="M555.673,-769.995C538.118,-767.18 516.362,-760.54 504,-745 309.299,-500.244 632.371,-285.137 432,-45 428.067,-40.2862 423.364,-36.3678 418.19,-33.1139"/>
<polygon fill="none" stroke="black" points="419.56,-29.8771 409.092,-28.2418 416.255,-36.048 419.56,-29.8771"/>
</g>
<!-- \\ContactForm -->
<g id="node23" class="node"><title>\\ContactForm</title>
<a xlink:href="protected.models.ContactForm.html" xlink:title="ContactForm" target="_parent">
<polygon fill="none" stroke="black" points="628,-1006 538,-1006 538,-970 628,-970 628,-1006"/>
<text text-anchor="middle" x="583" y="-985.1" font-family="Courier,monospace" font-size="11.00">ContactForm</text>
</a>
</g>
<!-- \\ContactForm&#45;&gt;\\CFormModel -->
<g id="edge45" class="edge"><title>\\ContactForm&#45;&gt;\\CFormModel</title>
<path fill="none" stroke="black" d="M537.372,-981.9C524.71,-977.959 512.201,-971.515 504,-961 385.781,-809.429 553.731,-247.765 432,-99 427.242,-93.1855 421.311,-88.5782 414.762,-84.9338"/>
<polygon fill="none" stroke="black" points="416.036,-81.664 405.501,-80.5382 413.034,-87.9879 416.036,-81.664"/>
</g>
<!-- \\Role -->
<g id="node24" class="node"><title>\\Role</title>
<a xlink:href="protected.models.Role.html" xlink:title="Role" target="_parent">
<polygon fill="none" stroke="black" points="610,-736 556,-736 556,-700 610,-700 610,-736"/>
<text text-anchor="middle" x="583" y="-715.1" font-family="Courier,monospace" font-size="11.00">Role</text>
</a>
</g>
<!-- \\Role&#45;&gt;\\CActiveRecord -->
<g id="edge47" class="edge"><title>\\Role&#45;&gt;\\CActiveRecord</title>
<path fill="none" stroke="black" d="M555.715,-715.961C538.179,-713.131 516.428,-706.487 504,-691 323.196,-465.685 618.023,-266.025 432,-45 428.047,-40.303 423.329,-36.3966 418.146,-33.1508"/>
<polygon fill="none" stroke="black" points="419.505,-29.9092 409.035,-28.2892 416.21,-36.085 419.505,-29.9092"/>
</g>
<!-- \\NewPw -->
<g id="node25" class="node"><title>\\NewPw</title>
<a xlink:href="protected.models.NewPw.html" xlink:title="NewPw" target="_parent">
<polygon fill="none" stroke="black" points="610,-952 556,-952 556,-916 610,-916 610,-952"/>
<text text-anchor="middle" x="583" y="-931.1" font-family="Courier,monospace" font-size="11.00">NewPw</text>
</a>
</g>
<!-- \\NewPw&#45;&gt;\\CFormModel -->
<g id="edge49" class="edge"><title>\\NewPw&#45;&gt;\\CFormModel</title>
<path fill="none" stroke="black" d="M555.988,-932.11C538.337,-929.354 516.345,-922.738 504,-907 392.74,-765.164 546.546,-238.196 432,-99 427.226,-93.1987 421.285,-88.6 414.73,-84.9608"/>
<polygon fill="none" stroke="black" points="415.997,-81.6886 405.462,-80.5703 413,-88.0146 415.997,-81.6886"/>
</g>
<!-- \\Tan -->
<g id="node26" class="node"><title>\\Tan</title>
<a xlink:href="protected.models.Tan.html" xlink:title="Tan" target="_parent">
<polygon fill="none" stroke="black" points="610,-682 556,-682 556,-646 610,-646 610,-682"/>
<text text-anchor="middle" x="583" y="-661.1" font-family="Courier,monospace" font-size="11.00">Tan</text>
</a>
</g>
<!-- \\Tan&#45;&gt;\\CActiveRecord -->
<g id="edge51" class="edge"><title>\\Tan&#45;&gt;\\CActiveRecord</title>
<path fill="none" stroke="black" d="M555.766,-661.92C538.251,-659.073 516.505,-652.425 504,-637 337.081,-431.113 603.687,-246.928 432,-45 428.023,-40.3229 423.289,-36.4307 418.094,-33.1947"/>
<polygon fill="none" stroke="black" points="419.442,-29.9474 408.969,-28.3454 416.157,-36.1288 419.442,-29.9474"/>
</g>
<!-- \\ParentChild -->
<g id="node27" class="node"><title>\\ParentChild</title>
<a xlink:href="protected.models.ParentChild.html" xlink:title="ParentChild" target="_parent">
<polygon fill="none" stroke="black" points="628,-628 538,-628 538,-592 628,-592 628,-628"/>
<text text-anchor="middle" x="583" y="-607.1" font-family="Courier,monospace" font-size="11.00">ParentChild</text>
</a>
</g>
<!-- \\ParentChild&#45;&gt;\\CActiveRecord -->
<g id="edge53" class="edge"><title>\\ParentChild&#45;&gt;\\CActiveRecord</title>
<path fill="none" stroke="black" d="M537.279,-603.516C524.769,-599.554 512.368,-593.196 504,-583 350.951,-396.521 589.367,-227.849 432,-45 427.995,-40.3468 423.241,-36.4718 418.032,-33.2475"/>
<polygon fill="none" stroke="black" points="419.366,-29.9935 408.889,-28.4133 416.094,-36.1817 419.366,-29.9935"/>
</g>
<!-- \\ChangePwd -->
<g id="node28" class="node"><title>\\ChangePwd</title>
<a xlink:href="protected.models.ChangePwd.html" xlink:title="ChangePwd" target="_parent">
<polygon fill="none" stroke="black" points="621,-898 545,-898 545,-862 621,-862 621,-898"/>
<text text-anchor="middle" x="583" y="-877.1" font-family="Courier,monospace" font-size="11.00">ChangePwd</text>
</a>
</g>
<!-- \\ChangePwd&#45;&gt;\\CFormModel -->
<g id="edge55" class="edge"><title>\\ChangePwd&#45;&gt;\\CFormModel</title>
<path fill="none" stroke="black" d="M544.454,-875.782C529.565,-872.135 513.79,-865.4 504,-853 399.697,-720.895 539.364,-228.63 432,-99 427.208,-93.2138 421.255,-88.625 414.692,-84.9918"/>
<polygon fill="none" stroke="black" points="415.954,-81.7168 405.417,-80.6071 412.962,-88.0453 415.954,-81.7168"/>
</g>
<!-- \\UserRole -->
<g id="node29" class="node"><title>\\UserRole</title>
<a xlink:href="protected.models.UserRole.html" xlink:title="UserRole" target="_parent">
<polygon fill="none" stroke="black" points="618,-574 548,-574 548,-538 618,-538 618,-574"/>
<text text-anchor="middle" x="583" y="-553.1" font-family="Courier,monospace" font-size="11.00">UserRole</text>
</a>
</g>
<!-- \\UserRole&#45;&gt;\\CActiveRecord -->
<g id="edge57" class="edge"><title>\\UserRole&#45;&gt;\\CActiveRecord</title>
<path fill="none" stroke="black" d="M547.212,-552.106C531.694,-548.556 514.669,-541.807 504,-529 364.801,-361.906 575.068,-208.794 432,-45 427.961,-40.3763 423.183,-36.5222 417.957,-33.3124"/>
<polygon fill="none" stroke="black" points="419.273,-30.0503 408.793,-28.4966 416.017,-36.2468 419.273,-30.0503"/>
</g>
<!-- \\Appointment -->
<g id="node30" class="node"><title>\\Appointment</title>
<a xlink:href="protected.models.Appointment.html" xlink:title="Appointment" target="_parent">
<polygon fill="none" stroke="black" points="628,-520 538,-520 538,-484 628,-484 628,-520"/>
<text text-anchor="middle" x="583" y="-499.1" font-family="Courier,monospace" font-size="11.00">Appointment</text>
</a>
</g>
<!-- \\Appointment&#45;&gt;\\CActiveRecord -->
<g id="edge59" class="edge"><title>\\Appointment&#45;&gt;\\CActiveRecord</title>
<path fill="none" stroke="black" d="M537.486,-495.343C524.983,-491.375 512.534,-485.057 504,-475 378.623,-327.256 560.797,-189.771 432,-45 427.919,-40.4133 423.111,-36.5857 417.865,-33.394"/>
<polygon fill="none" stroke="black" points="419.16,-30.122 408.674,-28.6012 415.923,-36.3287 419.16,-30.122"/>
</g>
<!-- \\Date -->
<g id="node31" class="node"><title>\\Date</title>
<a xlink:href="protected.models.Date.html" xlink:title="Date" target="_parent">
<polygon fill="none" stroke="black" points="610,-466 556,-466 556,-430 610,-430 610,-466"/>
<text text-anchor="middle" x="583" y="-445.1" font-family="Courier,monospace" font-size="11.00">Date</text>
</a>
</g>
<!-- \\Date&#45;&gt;\\CActiveRecord -->
<g id="edge61" class="edge"><title>\\Date&#45;&gt;\\CActiveRecord</title>
<path fill="none" stroke="black" d="M555.721,-445.573C538.416,-442.57 516.929,-435.88 504,-421 392.405,-292.56 546.567,-170.795 432,-45 427.691,-40.2688 422.608,-36.3477 417.075,-33.1002"/>
<polygon fill="none" stroke="black" points="418.561,-29.9294 408.059,-28.5321 415.397,-36.1737 418.561,-29.9294"/>
</g>
<!-- \\DateAndTime -->
<g id="node32" class="node"><title>\\DateAndTime</title>
<a xlink:href="protected.models.DateAndTime.html" xlink:title="DateAndTime" target="_parent">
<polygon fill="none" stroke="black" points="628,-412 538,-412 538,-376 628,-376 628,-412"/>
<text text-anchor="middle" x="583" y="-391.1" font-family="Courier,monospace" font-size="11.00">DateAndTime</text>
</a>
</g>
<!-- \\DateAndTime&#45;&gt;\\CActiveRecord -->
<g id="edge63" class="edge"><title>\\DateAndTime&#45;&gt;\\CActiveRecord</title>
<path fill="none" stroke="black" d="M580.579,-375.639C571.97,-317.842 537.486,-137.986 432,-45 426.831,-40.4436 420.934,-36.654 414.673,-33.5026"/>
<polygon fill="none" stroke="black" points="415.843,-30.1926 405.284,-29.327 412.999,-36.5886 415.843,-30.1926"/>
</g>
</g>
</svg>
