<?xml version="1.0" encoding="utf-8" ?>
<!DOCTYPE svg PUBLIC "-//W3C//DTD SVG 1.1//EN" "http://www.w3.org/Graphics/SVG/1.1/DTD/svg11.dtd">
<svg height="308" version="1.1" width="428" xmlns="http://www.w3.org/2000/svg">
<rect fill="#ffffff" height="280" stroke="#ffffff" stroke-width="1" width="312" x="102" y="14"/>
<rect fill="none" height="280" stroke="#000000" stroke-width="1" width="312" x="102" y="14"/>
<polyline fill="none" points="160,220 54,181" stroke="#000000" stroke-width="1"/>
<ellipse cx="213" cy="240" fill="#000000" rx="79.0" ry="26.0" stroke="#000000" stroke-width="1"/>
<ellipse cx="213" cy="240" fill="#ffffff" rx="78.0" ry="25.0" stroke="#ffffff" stroke-width="1"/>
<text font-family="Dialog" font-size="12" x="166" y="241">
TANs generieren</text>
<polyline fill="none" points="203,85 58,119" stroke="#000000" stroke-width="1"/>
<ellipse cx="281" cy="67" fill="#000000" rx="99.0" ry="29.0" stroke="#000000" stroke-width="1"/>
<ellipse cx="281" cy="67" fill="#ffffff" rx="98.0" ry="28.0" stroke="#ffffff" stroke-width="1"/>
<text font-family="Dialog" font-size="12" x="206" y="68">
Eigene Termine betrachten</text>
<ellipse cx="201" cy="133" fill="#000000" rx="66.0" ry="23.0" stroke="#000000" stroke-width="1"/>
<ellipse cx="201" cy="133" fill="#ffffff" rx="65.0" ry="22.0" stroke="#ffffff" stroke-width="1"/>
<text font-family="Dialog" font-size="12" x="154" y="134">
Termine löschen</text>
<text font-family="Dialog" font-size="12" x="31" y="171">
Lehrer</text>
<ellipse cx="49" cy="119" fill="#000000" rx="8.0" ry="7.5" stroke="#000000" stroke-width="1"/>
<ellipse cx="49" cy="119" fill="#ffffff" rx="7.0" ry="6.5" stroke="#ffffff" stroke-width="1"/>
<line fill="#000000" stroke="#000000" stroke-width="1" x1="49" x2="49" y1="127" y2="142"/>
<line fill="#000000" stroke="#000000" stroke-width="1" x1="39" x2="59" y1="132" y2="132"/>
<line fill="#000000" stroke="#000000" stroke-width="1" x1="49" x2="44" y1="142" y2="157"/>
<line fill="#000000" stroke="#000000" stroke-width="1" x1="49" x2="54" y1="142" y2="157"/>
<polyline fill="none" points="59,132 135,132" stroke="#000000" stroke-width="1"/>
<ellipse cx="315" cy="182" fill="#000000" rx="61.0" ry="22.0" stroke="#000000" stroke-width="1"/>
<ellipse cx="315" cy="182" fill="#ffffff" rx="60.0" ry="21.0" stroke="#ffffff" stroke-width="1"/>
<text font-family="Dialog" font-size="12" x="269" y="183">
Zeitplan drucken</text>
<polyline fill="none" points="54,181 254,181" stroke="#000000" stroke-width="1"/>
</svg>
