<?xml version="1.0" encoding="utf-8" ?>
<!DOCTYPE svg PUBLIC "-//W3C//DTD SVG 1.1//EN" "http://www.w3.org/Graphics/SVG/1.1/DTD/svg11.dtd">
<svg height="324" version="1.1" width="572" xmlns="http://www.w3.org/2000/svg">
<rect fill="#ffffff" height="296" stroke="#ffffff" stroke-width="1" width="464" x="94" y="14"/>
<rect fill="none" height="296" stroke="#000000" stroke-width="1" width="464" x="94" y="14"/>
<polyline fill="none" points="249,131 58,151" stroke="#000000" stroke-width="1"/>
<ellipse cx="316" cy="125" fill="#000000" rx="70.0" ry="23.0" stroke="#000000" stroke-width="1"/>
<ellipse cx="316" cy="125" fill="#ffffff" rx="69.0" ry="22.0" stroke="#ffffff" stroke-width="1"/>
<text font-family="Dialog" font-size="12" x="266" y="126">
Kinder hinzufügen</text>
<polyline fill="none" points="342,79 58,151" stroke="#000000" stroke-width="1"/>
<ellipse cx="405" cy="64" fill="#000000" rx="79.0" ry="26.0" stroke="#000000" stroke-width="1"/>
<ellipse cx="405" cy="64" fill="#ffffff" rx="78.0" ry="25.0" stroke="#ffffff" stroke-width="1"/>
<text font-family="Dialog" font-size="12" x="346" y="65">
Einloggen/Ausloggen</text>
<polyline fill="none" points="382,254 158,254 54,213" stroke="#000000" stroke-width="1"/>
<polyline fill="none" points="166,213 54,213" stroke="#000000" stroke-width="1"/>
<polyline fill="none" points="406,164 59,164" stroke="#000000" stroke-width="1"/>
<ellipse cx="471" cy="165" fill="#000000" rx="65.0" ry="22.0" stroke="#000000" stroke-width="1"/>
<ellipse cx="471" cy="165" fill="#ffffff" rx="64.0" ry="21.0" stroke="#ffffff" stroke-width="1"/>
<text font-family="Dialog" font-size="12" x="426" y="166">
Termine buchen</text>
<ellipse cx="265" cy="213" fill="#000000" rx="99.0" ry="29.0" stroke="#000000" stroke-width="1"/>
<ellipse cx="265" cy="213" fill="#ffffff" rx="98.0" ry="28.0" stroke="#ffffff" stroke-width="1"/>
<text font-family="Dialog" font-size="12" x="190" y="214">
Eigene Termine betrachten</text>
<ellipse cx="448" cy="255" fill="#000000" rx="66.0" ry="23.0" stroke="#000000" stroke-width="1"/>
<ellipse cx="448" cy="255" fill="#ffffff" rx="65.0" ry="22.0" stroke="#ffffff" stroke-width="1"/>
<text font-family="Dialog" font-size="12" x="401" y="256">
Termine löschen</text>
<text font-family="Dialog" font-size="12" x="33" y="203">
Eltern</text>
<ellipse cx="49" cy="151" fill="#000000" rx="8.0" ry="7.5" stroke="#000000" stroke-width="1"/>
<ellipse cx="49" cy="151" fill="#ffffff" rx="7.0" ry="6.5" stroke="#ffffff" stroke-width="1"/>
<line fill="#000000" stroke="#000000" stroke-width="1" x1="49" x2="49" y1="159" y2="174"/>
<line fill="#000000" stroke="#000000" stroke-width="1" x1="39" x2="59" y1="164" y2="164"/>
<line fill="#000000" stroke="#000000" stroke-width="1" x1="49" x2="44" y1="174" y2="189"/>
<line fill="#000000" stroke="#000000" stroke-width="1" x1="49" x2="54" y1="174" y2="189"/>
<ellipse cx="207" cy="51" fill="#000000" rx="57.0" ry="21.0" stroke="#000000" stroke-width="1"/>
<ellipse cx="207" cy="51" fill="#ffffff" rx="56.0" ry="20.0" stroke="#ffffff" stroke-width="1"/>
<text font-family="Dialog" font-size="12" x="173" y="52">
Registrieren</text>
<polyline fill="none" points="56,146 178,69" stroke="#000000" stroke-width="1"/>
</svg>
